<svg width="28" height="28" viewBox="0 0 28 28" fill="none" xmlns="http://www.w3.org/2000/svg">
<path d="M21 9.3335C21 7.47698 20.2625 5.6965 18.9497 4.38375C17.637 3.07099 15.8565 2.3335 14 2.3335C12.1435 2.3335 10.363 3.07099 9.05025 4.38375C7.7375 5.6965 7 7.47698 7 9.3335C7 17.5002 3.5 19.8335 3.5 19.8335H24.5C24.5 19.8335 21 17.5002 21 9.3335Z" fill="white"/>
<path d="M16.0191 24.5C15.814 24.8536 15.5196 25.1471 15.1654 25.3511C14.8111 25.5551 14.4095 25.6625 14.0008 25.6625C13.592 25.6625 13.1904 25.5551 12.8362 25.3511C12.4819 25.1471 12.1875 24.8536 11.9824 24.5" stroke="white" stroke-width="2" stroke-linecap="round" stroke-linejoin="round"/>
</svg>
