<svg width="22" height="18" viewBox="0 0 22 18" fill="none" xmlns="http://www.w3.org/2000/svg">
<path d="M20.4443 3.44692H16.0763L14.9605 0.475657C14.9016 0.317923 14.751 0.213251 14.5826 0.212891H7.30595C7.13757 0.213252 6.98688 0.317923 6.92804 0.475657L5.8122 3.44692H1.44424C1.17624 3.44692 0.91908 3.5534 0.729565 3.74289C0.540049 3.93238 0.433594 4.18956 0.433594 4.45757V10.3195C0.433594 10.4267 0.476185 10.5296 0.551983 10.6054C0.627781 10.6812 0.730651 10.7238 0.837851 10.7238H1.24211V16.9895C1.24211 17.2575 1.34859 17.5147 1.53808 17.7042C1.72757 17.8937 1.98475 18.0002 2.25276 18.0002H19.6358C19.9038 18.0002 20.161 17.8937 20.3505 17.7042C20.54 17.5147 20.6464 17.2575 20.6464 16.9895V10.7238H21.0507C21.1579 10.7238 21.2608 10.6812 21.3366 10.6054C21.4124 10.5296 21.455 10.4267 21.455 10.3195V4.45757C21.455 4.18957 21.3485 3.93241 21.159 3.74289C20.9695 3.55338 20.7123 3.44692 20.4443 3.44692H20.4443ZM7.58707 1.02138H14.3019L15.2115 3.44692H6.67775L7.58707 1.02138ZM19.8381 16.9893C19.8381 17.0429 19.8168 17.0943 19.7789 17.1322C19.741 17.1701 19.6896 17.1914 19.636 17.1914H2.25296C2.14125 17.1914 2.05083 17.101 2.05083 16.9893V10.7235H4.47637V12.7448C4.47637 12.852 4.51896 12.9549 4.59476 13.0307C4.67056 13.1065 4.77343 13.1491 4.88063 13.1491H8.11468C8.22188 13.1491 8.32475 13.1065 8.40055 13.0307C8.47635 12.9549 8.51894 12.852 8.51894 12.7448V10.7235H13.37V12.7448C13.37 12.852 13.4126 12.9549 13.4884 13.0307C13.5642 13.1065 13.6671 13.1491 13.7743 13.1491H17.0083C17.1155 13.1491 17.2184 13.1065 17.2942 13.0307C17.37 12.9549 17.4126 12.852 17.4126 12.7448V10.7235H19.8381V16.9893ZM7.71043 12.3406H5.28489V9.10651H7.71043V12.3406ZM16.6041 12.3406H14.1785V9.10651H16.6041V12.3406ZM20.6466 9.91503H17.4126V8.70226C17.4126 8.59506 17.37 8.49219 17.2942 8.41639C17.2184 8.34059 17.1155 8.298 17.0083 8.298H13.7743C13.551 8.298 13.37 8.47901 13.37 8.70226V9.91503H8.51894V8.70226C8.51894 8.59506 8.47635 8.49219 8.40055 8.41639C8.32475 8.34059 8.22188 8.298 8.11468 8.298H4.88063C4.65739 8.298 4.47637 8.47901 4.47637 8.70226V9.91503H1.24232V4.45779C1.24232 4.34608 1.33273 4.25566 1.44445 4.25566H20.4445C20.4981 4.25566 20.5495 4.27696 20.5874 4.31486C20.6254 4.35275 20.6466 4.40419 20.6466 4.45779V9.91503Z" fill="white"/>
</svg>
