<svg width="28" height="28" viewBox="0 0 28 28" fill="none" xmlns="http://www.w3.org/2000/svg">
<path d="M14 0C21.7328 0 28 6.26719 28 14C28 21.7328 21.7328 28 14 28C6.26719 28 0 21.7328 0 14C0 6.26719 6.26719 0 14 0Z" fill="#0052FF"/>
<path d="M14.0027 18.9219C11.2848 18.9219 9.08086 16.7207 9.08086 14C9.08086 11.2793 11.2848 9.07812 14.0027 9.07812C16.4391 9.07812 18.4625 10.8555 18.8508 13.1797H23.8082C23.3898 8.12656 19.1598 4.15625 14 4.15625C8.56406 4.15625 4.15625 8.56406 4.15625 14C4.15625 19.4359 8.56406 23.8438 14 23.8438C19.1598 23.8438 23.3898 19.8734 23.8082 14.8203H18.848C18.457 17.1445 16.4391 18.9219 14.0027 18.9219Z" fill="white"/>
</svg>
