<svg width="25" height="20" viewBox="0 0 25 20" fill="none" xmlns="http://www.w3.org/2000/svg">
<path d="M21.1636 2.04729C19.5701 1.32998 17.8614 0.801509 16.0749 0.498828C16.0424 0.492987 16.0099 0.507585 15.9931 0.536783C15.7733 0.920241 15.5299 1.42049 15.3595 1.81369C13.4379 1.53145 11.5262 1.53145 9.64408 1.81369C9.47359 1.41175 9.22134 0.920241 9.0006 0.536783C8.98384 0.508559 8.95134 0.493961 8.9188 0.498828C7.13324 0.800541 5.42454 1.32902 3.83014 2.04729C3.81634 2.05313 3.80451 2.06287 3.79666 2.07551C0.555616 6.82599 -0.33224 11.4597 0.103313 16.036C0.105283 16.0584 0.118094 16.0798 0.135831 16.0934C2.27418 17.6341 4.34553 18.5694 6.37842 19.1893C6.41095 19.1991 6.44542 19.1874 6.46613 19.1611C6.94701 18.5168 7.37567 17.8375 7.7432 17.1231C7.76489 17.0813 7.74419 17.0316 7.69986 17.0151C7.01993 16.762 6.3725 16.4535 5.74972 16.1031C5.70046 16.0749 5.69651 16.0058 5.74183 15.9727C5.87289 15.8764 6.00398 15.7761 6.12912 15.6749C6.15176 15.6564 6.18331 15.6525 6.20993 15.6642C10.3013 17.4968 14.7308 17.4968 18.7739 15.6642C18.8005 15.6515 18.8321 15.6554 18.8557 15.6739C18.9809 15.7751 19.1119 15.8764 19.244 15.9727C19.2893 16.0058 19.2863 16.0749 19.2371 16.1031C18.6143 16.4603 17.9669 16.762 17.2859 17.0141C17.2416 17.0307 17.2219 17.0813 17.2436 17.1231C17.619 17.8365 18.0477 18.5158 18.5197 19.1601C18.5394 19.1874 18.5749 19.1991 18.6074 19.1893C20.6501 18.5694 22.7215 17.6341 24.8598 16.0934C24.8786 16.0798 24.8904 16.0593 24.8924 16.037C25.4136 10.7463 24.0193 6.15056 21.1961 2.07648C21.1892 2.06287 21.1774 2.05313 21.1636 2.04729ZM8.35419 13.2495C7.12239 13.2495 6.10743 12.14 6.10743 10.7774C6.10743 9.41486 7.10271 8.30537 8.35419 8.30537C9.61549 8.30537 10.6206 9.42461 10.6009 10.7774C10.6009 12.14 9.60563 13.2495 8.35419 13.2495ZM16.6612 13.2495C15.4294 13.2495 14.4145 12.14 14.4145 10.7774C14.4145 9.41486 15.4097 8.30537 16.6612 8.30537C17.9225 8.30537 18.9276 9.42461 18.908 10.7774C18.908 12.14 17.9225 13.2495 16.6612 13.2495Z" fill="white"/>
</svg>
