<svg width="22" height="24" viewBox="0 0 22 24" fill="#88e900" xmlns="http://www.w3.org/2000/svg">
<path d="M11.3709 17.3523L15.4296 15.0073C15.5689 14.927 15.6548 14.7782 15.655 14.6174V9.93176C15.6548 9.7709 15.5689 9.62213 15.4296 9.5418L11.3709 7.19678C11.2314 7.11605 11.0594 7.11605 10.9199 7.19678L6.86122 9.5418C6.72191 9.62213 6.63594 9.7709 6.63574 9.93176V14.6174C6.63594 14.7782 6.72191 14.927 6.86122 15.0073L10.9199 17.3523C11.06 17.4307 11.2308 17.4307 11.3709 17.3523ZM11.5964 16.1798V12.5339L14.7531 10.7119V14.358L11.5964 16.1798ZM11.1454 8.10782L14.3021 9.93204L11.1454 11.754L7.98864 9.93204L11.1454 8.10782ZM7.53767 10.7121L10.6944 12.5341V16.1801L7.53767 14.3583V10.7121Z" fill="#88e900"/>
<path d="M20.1654 12.2746C20.1654 9.88245 19.2151 7.58835 17.5236 5.89715C15.8323 4.20564 13.5382 3.25537 11.1462 3.25537C8.75413 3.25537 6.45993 4.20564 4.76873 5.89715C3.07723 7.58845 2.12695 9.88255 2.12695 12.2746C2.12695 14.6666 3.07723 16.9608 4.76873 18.652C6.46003 20.3435 8.75413 21.2938 11.1462 21.2938C12.7294 21.2938 14.2848 20.877 15.6558 20.0854C17.0268 19.2939 18.1655 18.1552 18.9571 16.7841C19.7487 15.4131 20.1655 13.8577 20.1655 12.2745L20.1654 12.2746ZM3.02868 12.2746C3.02868 10.1216 3.88391 8.05704 5.40611 6.53469C6.92852 5.01249 8.99312 4.15725 11.146 4.15725C13.2989 4.15725 15.3635 5.01249 16.8859 6.53469C18.4081 8.05709 19.2633 10.1217 19.2633 12.2746C19.2633 14.4275 18.4081 16.4921 16.8859 18.0145C15.3635 19.5367 13.2989 20.3919 11.146 20.3919C8.99312 20.3919 6.92847 19.5367 5.40611 18.0145C3.88391 16.492 3.02868 14.4275 3.02868 12.2746Z" fill="#88e900"/>
<path d="M21.6077 16.2566C21.3976 16.2139 21.1864 16.3253 21.1026 16.5228L21.071 16.5995C20.2289 18.5314 18.8411 20.1754 17.0779 21.3298C15.3147 22.4841 13.2528 23.0986 11.1453 23.0978C10.8963 23.0978 10.6943 23.2997 10.6943 23.5488C10.6943 23.7978 10.8963 23.9997 11.1453 23.9997C13.1267 24.0001 15.076 23.4984 16.811 22.5415C18.546 21.5845 20.0102 20.2034 21.0667 18.5273V20.843C21.0667 21.092 21.2687 21.2939 21.5177 21.2939C21.7667 21.2939 21.9687 21.092 21.9687 20.843V16.6985C21.9687 16.4843 21.8179 16.2995 21.6079 16.2566L21.6077 16.2566Z" fill="#88e900"/>
<path d="M11.1454 1.45174C11.3945 1.45174 11.5964 1.24981 11.5964 1.00077C11.5964 0.751735 11.3945 0.549805 11.1454 0.549805C9.16421 0.549201 7.21517 1.0505 5.48027 2.00717C3.74547 2.96368 2.28125 4.34435 1.22429 6.01994V3.70651C1.22429 3.45747 1.02236 3.25554 0.773325 3.25554C0.524289 3.25554 0.32236 3.45747 0.32236 3.70651V7.84853C0.317931 8.06637 0.46973 8.25601 0.683132 8.2995C0.713129 8.30292 0.74333 8.30292 0.773325 8.2995C0.953711 8.2999 1.11699 8.1926 1.18825 8.0267C2.02092 6.07549 3.40865 4.41213 5.17891 3.24307C6.94937 2.07417 9.02417 1.45107 11.1456 1.45168L11.1454 1.45174Z" fill="#88e900"/>
</svg>
