<svg width="21" height="25" viewBox="0 0 21 25" fill="none" xmlns="http://www.w3.org/2000/svg">
<path d="M19.3641 10.0872C19.7593 8.76146 19.6148 8.22162 19.1382 7.52371C18.9513 7.2182 18.6871 6.96756 18.3721 6.79695C18.0571 6.62654 17.7028 6.54225 17.3449 6.55254C17.4308 5.92014 17.4105 5.02358 16.7803 4.44765C16.2354 3.97436 15.5203 3.7451 14.8018 3.81304C14.734 3.18508 14.463 2.20261 13.4467 1.74868C12.7003 1.44135 11.8534 1.49983 11.1564 1.90678C10.9316 1.37381 10.5055 0.950901 9.97068 0.730103C8.61554 0.181181 7.6149 0.978546 6.88086 1.56136L6.72276 1.6878C4.96794 3.06111 3.53598 4.39808 2.88319 5.24281C2.70251 5.47996 2.61902 5.92038 2.44721 6.88472C2.25523 7.97328 1.99549 9.46393 1.46696 10.7695C0.563535 13.028 0.633487 14.6812 0.759967 15.7383H0.760168C0.803121 16.0275 0.871078 16.3124 0.96344 16.5897C1.10117 17.0414 1.20059 17.3598 1.02212 17.7597H1.02232C0.787793 18.2038 0.507689 18.6224 0.186627 19.0086C0.0849886 19.1298 0.0543387 19.2951 0.105158 19.4445C0.1346 19.5305 0.863985 21.588 3.71887 23.0853C5.64549 24.0994 7.19706 24.3545 8.26765 24.3545V24.3547C8.77845 24.3624 9.28764 24.2946 9.7787 24.1536C10.2304 24.0091 10.5284 23.8149 10.6551 23.5709C11.1226 22.6674 11.3553 22.4936 11.8161 22.157H11.8159C12.3531 21.77 12.8528 21.3337 13.3089 20.8539C13.4941 20.8696 13.6794 20.8787 13.8667 20.8787C15.6691 20.8769 17.3974 20.16 18.6718 18.8855C19.9463 17.6111 20.6632 15.8829 20.665 14.0805C20.6684 12.6447 20.2127 11.2455 19.3641 10.0872L19.3641 10.0872ZM18.3839 8.0319C18.6888 8.48362 18.8559 8.72765 18.402 10.1076C18.3546 10.2183 18.1175 10.7851 17.9277 11.3002C17.7379 11.8152 17.4986 12.1403 17.2501 12.2488C17.131 12.303 16.9942 12.303 16.8751 12.2488C16.6597 12.1841 16.476 12.0411 16.3604 11.8481C16.2447 11.6551 16.2051 11.4258 16.2495 11.2052L17.1325 7.48764C17.3719 7.43179 17.623 7.45457 17.8484 7.55258C18.0737 7.65058 18.2616 7.81876 18.3838 8.03192L18.3839 8.0319ZM16.1727 5.11394C16.6244 5.53178 16.4098 6.75585 16.3038 7.115L15.3799 10.9975C15.3176 11.2873 15.1309 11.5351 14.8695 11.6751C14.6021 11.8017 14.2934 11.8092 14.0204 11.6955C13.5461 11.5057 13.3045 11.2121 13.2954 10.8215C13.5213 10.6702 13.7675 10.5278 14.0137 10.3945H14.0135C14.5132 10.1181 14.8629 9.63247 14.9666 9.07085C15.0837 8.44186 14.9121 7.79356 14.4991 7.30473C14.4404 7.23475 14.3793 7.16921 14.3162 7.10589L14.7679 4.72755V4.72775C15.2696 4.65354 15.7794 4.79369 16.1727 5.11393L16.1727 5.11394ZM13.0831 2.58434C14.0091 2.99996 13.9504 4.19477 13.9188 4.35289L13.5009 6.56851C12.7782 6.27711 11.9199 6.34265 11.0165 6.774L11.4412 2.80336C11.7844 2.58436 12.4416 2.28853 13.0831 2.58436L13.0831 2.58434ZM11.2762 21.4391C10.7138 21.8525 10.3932 22.1167 9.86237 23.1399C9.53266 23.4357 7.29204 23.9598 4.13464 22.2974C2.1469 21.238 1.32251 19.8851 1.06501 19.3657C1.37314 18.9821 1.63891 18.5663 1.8579 18.1257C2.17188 17.4187 1.99342 16.8383 1.83532 16.3188C1.7597 16.0948 1.70444 15.8641 1.67036 15.6299C1.553 14.6769 1.49411 13.1703 2.31851 11.1128C2.87409 9.72379 3.14734 8.17666 3.34836 7.04738H3.34856C3.40805 6.6241 3.49638 6.20528 3.61274 5.79388C4.20905 5.01023 5.61602 3.71156 7.28736 2.40603L7.4499 2.27737C8.27429 1.62236 8.83446 1.24752 9.63851 1.57502H9.63871C9.90047 1.67263 10.1259 1.84827 10.2851 2.07796C10.4442 2.30765 10.5291 2.58069 10.5285 2.85997L10.0542 7.3025C9.94808 7.3634 8.42112 8.24666 7.64654 8.65764C7.7504 7.41324 7.9696 5.57913 8.07345 5.19298V5.19318C8.11419 4.96107 7.97 4.73662 7.74193 4.67754C7.51385 4.61845 7.27851 4.74469 7.20168 4.96732C7.05487 5.51382 6.77477 7.98694 6.70479 9.15917C5.76306 9.63347 4.93624 9.97912 4.63822 9.90008C4.51904 9.85895 4.38816 9.86943 4.27705 9.92892C4.16614 9.98841 4.08486 10.0917 4.05341 10.2137C4.02175 10.3357 4.04252 10.4653 4.11068 10.5714C4.17884 10.6773 4.28814 10.7501 4.41236 10.7718C5.33396 11.0181 7.38681 9.89103 10.1876 8.2739C10.5558 8.06155 10.8968 7.86292 11.1949 7.69576C11.8228 7.34346 13.0017 6.8962 13.8126 7.87866C14.0522 8.15997 14.1532 8.53367 14.0883 8.89721C14.0322 9.19083 13.8473 9.44371 13.5845 9.58609C11.6535 10.6386 10.1697 12.1744 8.8597 13.5317C7.77115 14.661 6.82699 15.6322 5.99574 15.9101C5.7848 15.9795 5.65533 16.192 5.69083 16.4112C5.72632 16.6306 5.91588 16.7915 6.13811 16.7909C6.18651 16.7903 6.2345 16.7818 6.28028 16.7661C6.68057 16.6219 7.05568 16.4152 7.3916 16.1541C8.1196 18.3842 9.93653 20.088 12.209 20.6712C11.9168 20.9437 11.6066 21.1966 11.2808 21.4279L11.2762 21.4391ZM13.8667 19.9755C12.5549 19.9688 11.2825 19.5274 10.2484 18.7202C9.21449 17.9131 8.47739 16.7856 8.15252 15.5148C8.58608 15.1127 9.03555 14.6497 9.50766 14.1597C10.4304 13.1621 11.4287 12.2371 12.4934 11.3929C12.7076 11.993 13.1962 12.4543 13.8078 12.6331C14.4195 12.812 15.0797 12.6867 15.5832 12.2963C15.8028 12.6726 16.1485 12.959 16.5588 13.105C16.9051 13.2389 17.2896 13.2332 17.6316 13.089C18.1104 12.8632 18.5081 12.3707 18.7835 11.6322C18.8422 11.4719 18.9077 11.3047 18.9686 11.1489H18.9688C19.4869 12.0392 19.7603 13.0505 19.7615 14.0806C19.7597 15.6434 19.138 17.1417 18.0329 18.2468C16.9278 19.3519 15.4295 19.9736 13.8667 19.9754L13.8667 19.9755Z" fill="white"/>
</svg>
