<svg width="22" height="22" viewBox="0 0 22 22" fill="none" xmlns="http://www.w3.org/2000/svg">
<path d="M11.3168 2.25977C10.6373 2.26683 9.99269 2.56158 9.543 3.07098C9.08404 3.59752 8.83105 4.27259 8.83105 4.97121C8.83105 5.66984 9.08404 6.34491 9.543 6.87145C9.98846 7.38651 10.6358 7.68246 11.3168 7.68246C11.9977 7.68246 12.6451 7.3865 13.0905 6.87145C13.5495 6.34491 13.8025 5.66984 13.8025 4.97121C13.8025 4.27259 13.5495 3.59752 13.0905 3.07098C12.6408 2.56157 11.9962 2.26684 11.3168 2.25977ZM12.4195 6.266C12.1455 6.59121 11.7421 6.77883 11.3168 6.77883C10.8914 6.77883 10.488 6.59121 10.214 6.266C9.90472 5.90548 9.73486 5.44611 9.73486 4.97121C9.73486 4.49632 9.90473 4.03693 10.214 3.67643C10.488 3.35122 10.8914 3.1636 11.3168 3.1636C11.7421 3.1636 12.1455 3.35122 12.4195 3.67643C12.7288 4.03695 12.8987 4.49632 12.8987 4.97121C12.8987 5.44611 12.7288 5.9055 12.4195 6.266Z" fill="white"/>
<path d="M2.7312 9.94198H19.4177C19.5376 9.94198 19.6526 9.89437 19.7373 9.80963C19.822 9.7249 19.8696 9.60991 19.8696 9.49007V0.451908C19.8696 0.332072 19.822 0.217076 19.7373 0.132345C19.6525 0.047613 19.5376 0 19.4177 0H2.7312C2.48165 0 2.2793 0.202352 2.2793 0.451908V9.49007C2.2793 9.60991 2.32691 9.7249 2.41164 9.80963C2.49637 9.89437 2.61137 9.94198 2.7312 9.94198ZM18.9658 5.9765C18.1889 6.07535 17.467 6.42982 16.914 6.98423C16.3609 7.5384 16.008 8.26109 15.911 9.03821H6.23548C6.13824 8.26171 5.78539 7.53943 5.23281 6.98526C4.68025 6.43109 3.95921 6.07618 3.18291 5.97655V4.01078C3.96711 3.91011 4.6946 3.54918 5.24939 2.9859C5.80397 2.42264 6.15362 1.68946 6.2424 0.903919H15.9039C15.9927 1.68993 16.3427 2.42326 16.8977 2.98652C17.4529 3.54978 18.181 3.91053 18.9656 4.01078L18.9658 5.9765ZM3.18311 6.8894C3.71874 6.98099 4.21264 7.23701 4.59611 7.62217C4.97943 8.00729 5.23343 8.50217 5.32278 9.03821H3.18306L3.18311 6.8894ZM16.824 9.03816C16.9146 8.50212 17.1692 8.00766 17.5529 7.62273C17.9366 7.23781 18.4305 6.98159 18.9661 6.8894V9.03816H16.824ZM18.9662 3.09777C18.4227 3.00456 17.9225 2.74229 17.5368 2.34848C17.1511 1.95447 16.8993 1.4491 16.8174 0.903765H18.9661L18.9662 3.09777ZM5.32991 0.903816C5.24881 1.44895 4.99764 1.95472 4.61212 2.34873C4.22679 2.74274 3.72664 3.0048 3.18337 3.09782V0.903868L5.32991 0.903816Z" fill="white"/>
<path d="M21.1211 12.7011C21.041 12.5072 20.8378 12.394 20.6306 12.4277C19.9086 12.5467 19.1934 12.7051 18.4887 12.9022L18.3553 12.8074C17.8877 12.4729 17.0178 11.8515 15.0768 11.5963C13.9313 11.445 13.2171 11.7115 12.5235 11.9691V11.9689C11.7827 12.299 10.9699 12.4336 10.1623 12.3599C8.70039 12.2379 7.33563 12.2538 6.69831 13.7856C6.59441 14.0285 6.55104 14.2928 6.57182 14.5561C5.34723 13.9844 4.02538 13.3767 3.49884 13.1846C2.73969 12.9044 1.32524 12.3869 0.43496 13.4106C0.0958271 13.783 -0.0568926 14.2888 0.0191622 14.7867C0.132139 15.4803 0.663145 16.1424 1.4788 16.6326C2.95879 17.5026 7.22914 19.796 8.95568 20.4987C10.4062 21.0974 11.9926 21.3008 15.411 20.4625C18.3867 19.7326 18.9946 21.1021 19.0263 21.1404C19.0717 21.2621 19.1671 21.3585 19.2885 21.4049C19.3396 21.4245 19.394 21.4345 19.4489 21.4341C19.5222 21.4341 19.5942 21.4164 19.6589 21.3823C21.1321 20.605 21.5614 17.3603 21.6564 16.3843V16.3841C21.7458 15.1323 21.5632 13.8758 21.121 12.7011L21.1211 12.7011ZM20.7505 16.3163C20.5449 18.4108 20.0365 19.7599 19.5438 20.3405C19.1688 19.9068 18.4141 19.3576 16.9884 19.3576C16.3849 19.3609 15.7842 19.4367 15.1989 19.5836C12.0039 20.3676 10.6189 20.2072 9.30137 19.6627C7.67006 18.9848 3.42657 16.7253 1.93966 15.8553C1.36571 15.5164 0.981562 15.0645 0.913801 14.6443C0.877084 14.4141 0.948703 14.1796 1.10808 14.0094C1.46053 13.6071 2.02321 13.6162 3.18464 14.041C3.80822 14.267 5.70623 15.1708 7.09367 15.8104L7.75113 16.1198C8.01582 16.2679 8.29239 16.3934 8.5783 16.4949C9.87308 17.0463 11.0795 17.0733 12.1641 16.574C12.3913 16.4699 12.491 16.2011 12.3867 15.974C12.2826 15.747 12.0138 15.6474 11.7869 15.7515C10.9305 16.1469 9.99278 16.1152 8.92633 15.6589C8.79983 15.6046 8.52405 15.4781 8.17162 15.3131C7.89704 15.1733 7.66988 14.9556 7.51854 14.6873C7.44168 14.5105 7.44672 14.3088 7.53206 14.1359C7.87099 13.3202 8.43588 13.1235 10.0854 13.2615C11.0275 13.3424 11.9749 13.1871 12.842 12.8096C13.4838 12.5701 14.0374 12.3577 14.9591 12.4842C16.6764 12.7101 17.4264 13.248 17.8287 13.5349C18.0817 13.7156 18.3214 13.8873 18.6308 13.7947C19.2792 13.6027 19.9865 13.458 20.4001 13.3789C20.7046 14.3227 20.8236 15.3163 20.7504 16.305L20.7505 16.3163Z" fill="white"/>
</svg>
