<svg width="24" height="27" viewBox="0 0 24 27" fill="#88e900" xmlns="http://www.w3.org/2000/svg">
<path d="M23.5623 16.9857C23.1277 16.6179 22.4648 16.5884 21.5922 16.8982L16.5565 18.6851C16.5458 18.6558 16.5345 18.6267 16.5216 18.5976C16.3413 18.1753 16.0122 17.8584 15.5947 17.704L9.37107 15.4061C9.1288 15.3169 8.88143 15.3298 8.65536 15.4446L5.17924 17.2095L5.08331 17.0208C4.89878 16.6579 4.45356 16.5127 4.09115 16.6972L0.40385 18.571C0.228424 18.6602 0.0980724 18.8126 0.036785 19.0004C-0.0242807 19.1883 -0.00895976 19.3884 0.0800868 19.5638L3.28396 25.8682C3.41431 26.1242 3.67412 26.2719 3.94305 26.2719C4.05541 26.2719 4.16955 26.2462 4.27592 26.192L7.96322 24.318C8.32607 24.1335 8.4713 23.6885 8.28677 23.3258L8.23258 23.219C8.48995 23.1147 8.70579 23.0218 8.88787 22.9432C9.33421 22.75 9.52297 22.6714 9.67327 22.6901C9.85936 22.7118 10.1511 22.8779 10.681 23.1791C10.8753 23.2894 11.1009 23.4178 11.3674 23.565L11.6292 23.7102C12.6538 24.2794 13.3171 24.6115 14.0393 24.6115C15.2078 24.6115 16.5299 23.7419 19.786 21.6002C20.7004 20.9986 21.737 20.3171 22.9812 19.5135L23.0316 19.4813C23.3643 19.2679 23.8668 18.9456 23.9685 18.371C24.0704 17.7945 23.9227 17.29 23.5628 16.9858L23.5623 16.9857ZM3.99024 25.3849L0.886075 19.2766L4.37708 17.5024L7.48107 23.6106L3.99024 25.3849ZM23.1337 18.2221C23.0966 18.4313 22.7946 18.6249 22.5738 18.7662L22.5214 18.7999C21.2743 19.6051 20.2362 20.288 19.3204 20.8906C16.7321 22.5931 15.4328 23.4478 14.5334 23.6916C13.7349 23.9086 13.2392 23.6328 12.0419 22.9675L11.7786 22.8214C11.5159 22.6762 11.2927 22.5496 11.1008 22.4403C9.83886 21.7231 9.68941 21.6711 8.55178 22.1639C8.35859 22.2476 8.1292 22.3469 7.84783 22.4592L5.56393 17.9649L9.03987 16.2004C9.0492 16.1955 9.05453 16.1926 9.07784 16.2013L15.3021 18.4992C15.4986 18.5716 15.6549 18.7246 15.7429 18.9302C15.7857 19.0306 15.8102 19.1372 15.8157 19.2444C15.8157 19.2558 15.8159 19.2671 15.817 19.2788C15.8193 19.4088 15.7939 19.5387 15.7418 19.6595C15.5521 20.0965 15.0309 20.2959 14.5558 20.114L11.8293 19.0697C11.6103 18.986 11.3654 19.0954 11.2817 19.3139C11.198 19.5327 11.3074 19.7778 11.526 19.8615L14.2524 20.9059C15.1527 21.2512 16.1488 20.8519 16.5199 19.997C16.5819 19.8544 16.6238 19.705 16.6463 19.5529L21.8769 17.6967C22.421 17.5035 22.8362 17.48 23.0159 17.6321C23.1577 17.7535 23.1697 18.0165 23.1335 18.2221L23.1337 18.2221ZM15.644 15.624C15.6813 15.6351 15.7199 15.6407 15.7586 15.6407C15.7972 15.6407 15.8358 15.6351 15.8732 15.624C15.9658 15.5967 18.1697 14.9294 20.1916 12.9415C22.2437 10.9229 22.5265 9.08892 22.5265 7.40748L22.5268 2.21059C22.5268 2.03005 22.4068 1.87106 22.2332 1.82131L15.8992 0.0152673C15.8271 -0.00494033 15.7505 -0.00516262 15.6783 0.0150452L9.28521 1.82149C9.11111 1.87079 8.99053 2.02979 8.99053 2.21077V7.40766C8.99053 9.08909 9.27344 10.9236 11.3257 12.9417C13.3473 14.9298 15.5513 15.5966 15.6439 15.624L15.644 15.624ZM9.80006 2.51666L15.7878 0.824532L21.7182 2.51575V7.40754C21.7182 8.80985 21.5563 10.4649 19.6248 12.3646C18.0056 13.957 16.2226 14.649 15.7589 14.8099C15.2955 14.6487 13.5125 13.957 11.8933 12.3646C9.96179 10.4649 9.79994 8.80985 9.79994 7.40754L9.80006 2.51666ZM12.3826 7.52749C12.5285 7.34451 12.7952 7.31431 12.9786 7.46064L15.2172 9.24691L18.9538 5.06196C19.1097 4.8872 19.3777 4.87187 19.5525 5.02821C19.7272 5.1841 19.7426 5.45212 19.5862 5.62687L15.5825 10.111C15.499 10.2044 15.3831 10.2526 15.266 10.2526C15.1732 10.2526 15.0795 10.222 15.0016 10.16L12.4492 8.12329C12.2667 7.9774 12.2367 7.71026 12.3826 7.52753L12.3826 7.52749Z" fill="#88e900"/>
</svg>
