<svg width="24" height="22" viewBox="0 0 24 22" fill="none" xmlns="http://www.w3.org/2000/svg">
<path d="M20.84 3.60987C20.3292 3.09888 19.7228 2.69352 19.0554 2.41696C18.3879 2.14039 17.6725 1.99805 16.95 1.99805C16.2275 1.99805 15.5121 2.14039 14.8446 2.41696C14.1772 2.69352 13.5708 3.09888 13.06 3.60987L12 4.66987L10.94 3.60987C9.90831 2.57818 8.50903 1.99858 7.05 1.99858C5.59097 1.99858 4.19169 2.57818 3.16 3.60987C2.12831 4.64156 1.54871 6.04084 1.54871 7.49987C1.54871 8.95891 2.12831 10.3582 3.16 11.3899L4.22 12.4499L12 20.2299L19.78 12.4499L20.84 11.3899C21.351 10.8791 21.7564 10.2727 22.0329 9.60523C22.3095 8.93777 22.4518 8.22236 22.4518 7.49987C22.4518 6.77738 22.3095 6.06198 22.0329 5.39452C21.7564 4.72706 21.351 4.12063 20.84 3.60987V3.60987Z" stroke="white" stroke-width="2" stroke-linecap="round" stroke-linejoin="round"/>
</svg>
