<svg width="63" height="63" viewBox="0 0 63 63" fill="none" xmlns="http://www.w3.org/2000/svg">
<path d="M29.1936 27.9065C27.4754 31.5697 21.9223 34.3315 16.2781 34.3315C10.634 34.3315 5.08139 31.5698 3.3614 27.905C2.63001 26.3516 2.58783 24.7431 3.24992 23.7061C4.00022 22.5311 5.50904 22.2845 6.64276 22.2845H10.3598C11.2458 23.3828 13.3271 25.4849 16.2778 25.4849C19.2291 25.4849 21.3166 23.3809 22.2036 22.2845H25.913C27.0467 22.2845 28.5555 22.5311 29.3059 23.7061C29.9679 24.7432 29.9255 26.3521 29.1936 27.9065ZM11.3956 15.3574C12.5772 16.9257 14.3885 17.7534 16.2207 17.7534C17.478 17.7534 18.7455 17.364 19.8263 16.5566C20.2824 16.2164 20.6876 15.813 21.0245 15.3661C21.7118 14.469 22.2701 13.4821 22.6617 12.4885C23.7542 10.0448 23.9083 7.29505 23.0965 4.74607L23.0795 4.69588C22.0374 1.81347 19.2864 -0.0236831 16.2182 0.0892317C13.1734 -0.0511953 10.355 1.84003 9.3318 4.73937C8.50832 7.28008 8.65178 10.0245 9.71519 12.4191C10.1383 13.4773 10.7078 14.4713 11.3956 15.3574ZM11.9656 5.62335C12.5521 3.96323 14.1491 2.84952 15.9013 2.84952C15.9788 2.84952 16.0569 2.85145 16.1349 2.8558L16.2086 2.86014L16.2818 2.85628C18.156 2.77135 19.816 3.87065 20.4559 5.60836C21.0526 7.50394 20.9348 9.54667 20.0992 11.4185C19.7783 12.2302 19.3455 12.9937 18.808 13.6959C18.6229 13.9415 18.4048 14.1591 18.159 14.342C16.7287 15.4109 14.6921 15.1204 13.6073 13.6804C13.0659 12.9826 12.6253 12.2139 12.2782 11.3476C11.4703 9.52826 11.3636 7.48323 11.9656 5.62335ZM62.0952 47.9293C60.9818 46.1858 58.9438 45.2249 56.3574 45.2249L51.1863 45.2298L50.7758 45.8648C50.7593 45.8904 49.0867 48.4356 46.7218 48.4356C44.3575 48.4356 42.6849 45.8904 42.6712 45.8696L42.2621 45.2249H37.0866C34.4998 45.2249 32.4622 46.1857 31.3484 47.9293C30.1634 49.7852 30.1411 52.3492 31.2878 54.7862C33.4719 59.4392 39.9623 62.8158 46.7209 62.8158C53.4796 62.8158 59.9714 59.4392 62.154 54.7877C63.3022 52.3493 63.2807 49.7854 62.0952 47.9293ZM59.6382 53.6146C57.9166 57.2826 52.3641 60.0483 46.7215 60.0483C41.0797 60.0483 35.5271 57.2821 33.8048 53.6131C33.0739 52.0597 33.0312 50.4508 33.6933 49.4138C34.4436 48.2387 35.9524 47.9921 37.0861 47.9921H40.7945C41.6815 49.0919 43.7686 51.2026 46.7213 51.2026C49.6736 51.2026 51.7616 49.0918 52.6486 47.9921H56.357C57.4907 47.9921 58.9995 48.2387 59.7499 49.4138C60.4119 50.4508 60.3696 52.0597 59.6382 53.6146ZM46.6111 25.8158C43.5421 25.699 40.7837 27.5352 39.7285 30.4708C38.9157 33.0125 39.062 35.7569 40.1322 38.1794C40.5718 39.2179 41.1501 40.1922 41.8306 41.0468C43.0118 42.6147 44.8231 43.4424 46.6552 43.4424C47.9125 43.4424 49.1795 43.0534 50.2604 42.2461C50.715 41.9068 51.1202 41.5044 51.4576 41.0575C52.1458 40.1628 52.7042 39.1788 53.1011 38.1766C54.167 35.7395 54.307 33.0029 53.4942 30.4693L53.4787 30.4235C52.4376 27.5348 49.6787 25.6933 46.6111 25.8158ZM50.8531 31.3356C51.4522 33.222 51.3456 35.2579 50.5337 37.1158C50.2134 37.9237 49.781 38.6847 49.2439 39.3844C49.0573 39.631 48.8387 39.8486 48.593 40.0315C47.1641 41.0985 45.1261 40.8114 44.0315 39.3574C43.4853 38.6702 43.0355 37.9131 42.685 37.0845C41.878 35.2598 41.7685 33.2084 42.3598 31.3568C42.9657 29.6716 44.5409 28.5767 46.3207 28.5767C46.3934 28.5767 46.4666 28.5786 46.5398 28.582L46.6105 28.5859L46.6813 28.582C48.5415 28.4976 50.2162 29.5939 50.8531 31.3356Z" fill="#88E900"/>
<path d="M31.7841 7.863C31.8474 7.88672 37.7423 10.1378 44.3869 16.7332L39.746 16.4823L42.4142 19.4434L49.0753 19.8029L49.4272 13.1801L46.759 10.2099L46.5021 14.9226C39.3525 7.75873 33.0351 5.3734 32.7515 5.26868L31.7841 7.863Z" fill="url(#paint0_linear_51_568)"/>
<path d="M26.5866 55.0451C26.5246 55.0218 20.6656 52.7697 13.99 46.1738L18.6225 46.4244L15.9543 43.4633L9.3025 43.1038L8.94092 49.7266L11.6091 52.6968L11.8665 47.9773C19.0506 55.1454 25.3317 57.5332 25.6133 57.6374L26.5866 55.0451Z" fill="url(#paint1_linear_51_568)"/>
<defs>
<linearGradient id="paint0_linear_51_568" x1="35.083" y1="5.26868" x2="29.3247" y2="24.758" gradientUnits="userSpaceOnUse">
<stop stop-color="#CEA7FF"/>
<stop offset="1" stop-color="#9348F3"/>
</linearGradient>
<linearGradient id="paint1_linear_51_568" x1="17.7638" y1="43.1038" x2="11.3671" y2="58.6365" gradientUnits="userSpaceOnUse">
<stop stop-color="#CEA7FF"/>
<stop offset="1" stop-color="#9348F3"/>
</linearGradient>
</defs>
</svg>
