<svg width="63" height="58" viewBox="0 0 63 58" fill="none" xmlns="http://www.w3.org/2000/svg">
<path d="M62.1619 37.3805L62.0353 36.9524L61.8457 36.5432L61.4917 35.7564L61.1504 35.1268L59.8484 32.7726C59.0142 31.3062 58.262 30.0408 57.6235 29.0525C57.6235 29.0525 57.5728 29.0209 57.5349 29.0086V29.009C57.9736 28.473 58.2633 27.8311 58.374 27.1483C58.4851 26.4656 58.4137 25.7657 58.1667 25.119C57.8594 24.3295 57.314 23.6548 56.6055 23.1867C56.2863 22.9606 55.9375 22.7784 55.5689 22.6454C55.2285 22.5497 54.8788 22.4886 54.5261 22.4627L52.9017 22.3056C50.784 22.0979 48.8691 21.928 47.2131 21.7892H47.2127C47.1231 21.7831 47.0328 21.7936 46.9472 21.8208C46.9499 21.7936 46.9499 21.7664 46.9472 21.7392C46.5552 20.562 46.094 19.2217 45.5125 17.6226L45.0447 16.3639C44.8555 15.8831 44.6205 15.4212 44.3427 14.9852C45.9428 15.0309 47.5143 14.5558 48.8193 13.6325C50.124 12.7092 51.0909 11.3876 51.5741 9.86809C52.1813 7.99419 52.0173 5.95699 51.1191 4.20348C50.172 2.33622 48.4895 0.943498 46.4732 0.357345C45.4375 0.0574681 44.3501 -0.0237504 43.281 0.118062C41.0425 0.42847 39.0505 1.69466 37.826 3.58654C36.893 5.01826 36.4702 6.72052 36.6249 8.42053C36.6249 8.55269 36.6628 8.68484 36.6818 8.81699H36.6311L35.9988 8.49604L34.7727 7.86643C33.9301 7.44669 33.087 7.06691 32.2445 6.72706C30.5632 6.00965 28.8504 5.3739 27.1246 4.83867L26.4924 4.63714L26.1762 4.5366H26.1767C26.0126 4.4861 25.8455 4.44396 25.6771 4.41103C24.2728 4.12652 22.8169 4.53703 21.7711 5.51217L20.8165 6.45613L17.2513 10.0375L15.5255 11.781L14.7548 12.6187L14.6472 12.7258L14.4955 12.8896V12.8891C14.3932 12.9985 14.298 13.1139 14.2112 13.2355C13.298 14.4592 13.0851 16.0662 13.6485 17.4838C14.0895 18.5441 14.948 19.3771 16.0233 19.7889C17.0987 20.2007 18.2967 20.1546 19.3372 19.662C19.5801 19.5492 19.8112 19.4122 20.0263 19.2528C20.1339 19.1773 20.2349 19.089 20.3359 19.0074L20.5885 18.7619L21.3028 18.0191C22.9654 16.2755 24.4827 14.677 25.8164 13.2039C27.3208 13.9279 28.3446 14.4 29.2295 14.7964C28.2727 16.114 27.2193 17.6037 26.069 19.2655L25.1272 20.6064V20.606C24.7661 21.092 24.4367 21.6009 24.1413 22.1291C23.8318 22.7319 23.5862 23.3646 23.4081 24.0175C23.2864 24.5224 23.2057 25.0357 23.1678 25.5533C21.0757 27.1335 18.2309 29.481 14.786 32.4017C12.637 31.5521 10.3614 30.6643 7.95312 29.7643L7.44739 29.5755C7.20224 29.485 6.95092 29.4113 6.69518 29.3551C5.0655 28.9955 3.36144 29.4354 2.11271 30.5383C1.68635 30.9202 1.33096 31.3742 1.06333 31.8792C0.798333 32.3722 0.618886 32.9066 0.53247 33.4589C0.35125 34.5803 0.556279 35.7297 1.11403 36.7203C1.67179 37.7112 2.54923 38.4848 3.60426 38.9164L3.93937 39.0424L4.19863 39.1368L4.72331 39.3256L5.76608 39.697L9.88114 41.1384L13.8507 42.4916V42.4911C14.2599 42.6439 14.6832 42.7559 15.1148 42.8248C15.5945 42.8973 16.0826 42.8973 16.5623 42.8248C17.4415 42.6725 18.2607 42.2778 18.926 41.6854C22.4718 38.9159 25.3166 36.5872 27.2443 34.8559L31.5048 40.3639L27.7689 48.3072L26.6944 50.5982C26.19 51.7367 26.1027 53.0152 26.4479 54.2112C26.6287 54.8338 26.929 55.4151 27.3328 55.9231C27.5282 56.1812 27.7482 56.4196 27.9902 56.6343C28.2363 56.8389 28.5008 57.0203 28.7803 57.1757C29.9347 57.818 31.2953 57.9848 32.5714 57.6402C33.8474 57.2951 34.9373 56.4666 35.6071 55.3317C35.6957 55.1934 35.7649 55.0423 35.8408 54.8974L35.9797 54.5954L36.2513 54.0035L36.8011 52.8203L38.9947 48.0746L41.1816 43.3223L41.7257 42.1579L41.8646 41.862C41.9277 41.711 41.9973 41.56 42.048 41.4023C42.5767 39.8801 42.3417 38.1981 41.4162 36.877L37.2315 29.1098L39.5008 25.0876L40.354 26.7305L40.291 26.5856C40.7231 27.7193 41.6163 28.6176 42.7499 29.0593C43.0246 29.1682 43.3108 29.2463 43.6031 29.2924L43.8117 29.324H43.9506L44.2288 29.3556L45.3412 29.4817L49.0961 29.9097C48.6221 30.5393 48.1164 31.2884 47.5789 32.0874L46.0433 34.3529C45.3995 35.267 44.8889 36.2672 44.5261 37.324C43.9512 39.284 44.0561 41.3805 44.8246 43.2737C45.5931 45.1674 46.9798 46.7479 48.7611 47.7599C50.0187 48.4729 51.4252 48.8865 52.87 48.9682C54.3166 49.0499 55.7619 48.7864 57.0861 48.2003C58.3841 47.6287 59.5323 46.7672 60.4423 45.6828C62.1578 43.6205 62.8704 40.909 62.3893 38.2742C62.3294 37.9726 62.2535 37.6741 62.1618 37.3808L62.1619 37.3805ZM17.0934 39.3879C16.8156 39.6083 16.4796 39.7435 16.1265 39.7782C15.9483 39.805 15.7671 39.805 15.589 39.7782C15.4999 39.762 15.4131 39.7369 15.3297 39.7027L14.9378 39.5578L11.0251 38.0536L6.94174 36.4923L4.95719 35.7371C4.62209 35.5931 4.34431 35.3428 4.16707 35.0258C3.97879 34.7097 3.90516 34.3383 3.95851 33.9747C3.9854 33.796 4.04316 33.6235 4.12914 33.465C4.20542 33.3135 4.30815 33.1774 4.43249 33.0619C4.71204 32.8156 5.06035 32.6598 5.43117 32.615C5.61988 32.5864 5.81168 32.5864 5.99995 32.615C6.09872 32.6334 6.19572 32.6589 6.29095 32.6905L6.80286 32.8666C9.51444 33.8105 12.138 34.6983 14.5652 35.4973H14.6539L14.6534 35.4978C15.1464 35.6791 15.6993 35.5777 16.0948 35.2335C19.0277 32.4072 21.474 29.9586 23.2818 28.033C23.4475 28.9107 23.7438 29.7594 24.1605 30.5505C24.5269 31.2148 24.9497 31.8461 25.4246 32.4389L26.2209 33.4839C23.9893 34.7993 20.9176 36.8009 17.2134 39.3311L17.0934 39.3879ZM44.5964 26.3779L44.3181 26.3401H44.1096C44.0267 26.3252 43.946 26.2997 43.8693 26.2646C43.5562 26.1298 43.3151 25.869 43.2057 25.5472L43.1616 25.4466V25.4089L41.0567 21.003V21.0026C40.8015 20.4665 40.2688 20.1152 39.6736 20.0902C39.0783 20.0652 38.5184 20.3703 38.2185 20.8831L33.8569 28.2601C33.5695 28.751 33.5554 29.3547 33.819 29.8588L38.3953 38.5261C38.4411 38.6121 38.494 38.6942 38.5536 38.7715C38.8741 39.2026 38.9548 39.766 38.7683 40.2695C38.7683 40.32 38.7304 40.3701 38.7114 40.4206L38.5725 40.7165L38.0227 41.8997L35.8358 46.652L33.655 51.4043L33.1114 52.5875L32.8398 53.1793L32.7071 53.4687C32.7071 53.5126 32.663 53.563 32.6312 53.607H32.6308C32.4121 53.9758 32.0589 54.2462 31.6445 54.3621C31.2384 54.4772 30.8027 54.4302 30.4301 54.2322C30.0576 54.0337 29.7767 53.6987 29.6471 53.2983C29.5205 52.8571 29.5518 52.3851 29.7357 51.964L30.7595 49.6981L34.7353 40.842V40.8042H34.7357C34.9681 40.2844 34.8874 39.6784 34.5272 39.2373L28.9077 32.3134L27.5801 30.6959C27.1802 30.2414 26.8191 29.7554 26.4994 29.2416C25.9549 28.306 25.6511 27.251 25.6145 26.1701C25.5845 25.1497 25.7878 24.1363 26.2084 23.2056C26.4452 22.7332 26.7088 22.2752 26.9985 21.8335L27.8455 20.4488C28.9452 18.6426 29.9314 17.0057 30.7847 15.5582H30.7851C30.9765 15.1779 30.838 14.7147 30.469 14.5005L30.5007 14.4377C30.6991 14.1308 30.6515 13.7269 30.387 13.4744C29.3442 12.8448 28.1621 12.1401 26.0633 10.9569C25.674 10.7392 25.1885 10.7923 24.8561 11.0891L24.7931 11.1457C23.2124 12.5744 21.3918 14.2489 19.3883 16.1057L18.6299 16.8108C18.5541 16.8863 18.5351 16.8925 18.4972 16.9241L18.3896 16.9996C18.3164 17.0479 18.2379 17.0879 18.1555 17.119C17.8275 17.2534 17.4597 17.2534 17.1317 17.119C16.8085 16.9759 16.5603 16.7046 16.4474 16.3709C16.3345 16.0372 16.3671 15.6715 16.5373 15.3628C16.5814 15.2798 16.6343 15.2017 16.6956 15.1301C16.7234 15.0915 16.7551 15.0555 16.7904 15.023L16.8411 14.9664L16.9487 14.8658L17.8208 14.0351L19.5968 12.3422L23.244 8.7982L24.1351 7.94204C24.3886 7.71856 24.7339 7.62988 25.0645 7.70276L25.2034 7.74052L25.513 7.84106L26.1452 8.04259C27.7634 8.5778 29.3688 9.18197 30.9491 9.8677C31.7414 10.2075 32.5249 10.5662 33.3004 10.9438L34.457 11.5229L35.0324 11.8188L35.3608 11.9888L35.3613 11.9892C35.5496 12.0845 35.7467 12.1622 35.949 12.2223C36.5698 12.4102 37.2304 12.4265 37.8595 12.2689C38.4887 12.1117 39.0628 11.7863 39.5205 11.3284L39.6214 11.2279L39.7414 11.0957L39.7418 11.0953C40.0879 10.6817 40.2899 10.1671 40.3168 9.62883C40.3331 9.46374 40.3331 9.29691 40.3168 9.13182C40.2983 9.01064 40.2731 8.89078 40.2409 8.77267C40.2409 8.69716 40.203 8.62163 40.1841 8.53998C40.1528 8.38587 40.1294 8.23044 40.1148 8.07415C40.0804 7.76461 40.0804 7.45245 40.1148 7.14247C40.2767 5.88767 40.9808 4.76583 42.0425 4.07087C42.5641 3.73324 43.1488 3.50405 43.762 3.3978C44.3665 3.30604 44.9838 3.33809 45.5759 3.4922C46.7421 3.81051 47.7267 4.5907 48.3004 5.65102C48.8669 6.67269 49.0076 7.87525 48.6924 8.99968C48.3991 10.0718 47.7254 11.0022 46.796 11.6178C45.9282 12.192 44.8965 12.4699 43.8568 12.4111L43.5028 12.3483C43.408 12.3483 43.4207 12.3483 43.1425 12.2978C42.6099 12.2654 42.0888 12.4581 41.706 12.8282C41.3237 13.1984 41.1152 13.7116 41.1324 14.2424C41.1487 14.6762 41.3215 15.0898 41.6191 15.4072L41.8973 15.6904H41.8969C42.0468 15.8506 42.1883 16.0188 42.3206 16.194C42.5667 16.5219 42.7783 16.8741 42.9525 17.2451L43.5151 18.4533C44.2232 20.0142 44.8237 21.2856 45.3669 22.4C45.4996 22.6704 45.9423 22.7398 46.3594 22.5699V22.6392H46.3598C46.3131 23.0533 46.5847 23.437 46.9917 23.5327C48.654 23.8286 50.5503 24.1623 52.6803 24.4894L54.2923 24.7476C54.5074 24.7704 54.7195 24.8169 54.9245 24.8863C55.0863 24.9504 55.2394 25.0351 55.3796 25.1379C55.6551 25.3469 55.8602 25.6345 55.9673 25.9624C56.0616 26.2755 56.044 26.6113 55.917 26.913C55.7856 27.2278 55.5489 27.4881 55.2468 27.6493C55.0996 27.7292 54.9391 27.7823 54.7729 27.8069C54.693 27.8139 54.6124 27.8139 54.5326 27.8069C54.4439 27.8069 54.406 27.8069 54.2041 27.763L50.108 27.1334L45.7843 26.5038L44.5964 26.3779ZM57.8704 43.505L57.8699 43.5054C56.6547 44.8705 54.8814 45.6099 53.0516 45.5145C51.2222 45.4188 49.5361 44.4986 48.4709 43.0141C47.4669 41.5921 47.1032 39.8178 47.4656 38.1174C47.6949 37.2889 48.0304 36.4934 48.4643 35.7509L49.6909 33.3462C50.2852 32.163 50.7905 31.0991 51.208 30.199L53.7362 30.4822C53.9584 30.5121 54.182 30.5292 54.4059 30.5327C55.0184 30.5274 55.6198 30.372 56.1569 30.0796C56.5233 31.1434 57.01 32.4149 57.5916 33.8564L58.622 36.3361L58.9064 36.9657L59.1022 37.5387L59.2031 37.8219L59.26 38.1178L59.2605 38.1174C59.3076 38.325 59.3434 38.5353 59.368 38.7465C59.5621 40.4711 59.021 42.197 57.8764 43.5054L57.8704 43.505Z" fill="#88E900"/>
<path d="M8.4261 16.4836C8.47064 16.1771 8.48519 15.8676 8.47064 15.5585C8.48254 15.2889 8.46799 15.0189 8.4261 14.7528C6.94068 13.5885 2.46532 13.6012 0.979898 14.7528C0.936689 15.0527 0.921698 15.3561 0.935807 15.659C0.924344 15.9198 0.939334 16.1815 0.979898 16.4397C2.46532 17.6102 6.94068 17.6418 8.4261 16.4836V16.4836Z" fill="url(#paint0_linear_51_577)"/>
<path d="M13.8505 8.16827C13.899 7.86269 13.9162 7.55228 13.9008 7.24318C13.9131 6.97361 13.8964 6.70359 13.8505 6.43752C12.2451 5.27319 7.39073 5.28589 5.78487 6.43752C5.73857 6.7374 5.72402 7.04078 5.74034 7.34372C5.72711 7.60496 5.74166 7.86663 5.78487 8.12436C7.39028 9.29487 12.2386 9.3015 13.8505 8.16826V8.16827Z" fill="url(#paint1_linear_51_577)"/>
<path d="M5.73471 24.0175C5.72104 24.2788 5.73603 24.5404 5.7788 24.7982C7.38421 25.9753 12.2386 25.9814 13.8445 24.7982C13.8912 24.5027 13.908 24.2032 13.8952 23.9043C13.9075 23.6347 13.8908 23.3647 13.8445 23.0986C12.239 21.9343 7.38466 21.947 5.7788 23.0986C5.73206 23.4024 5.71707 23.7106 5.73471 24.0175Z" fill="url(#paint2_linear_51_577)"/>
<defs>
<linearGradient id="paint0_linear_51_577" x1="4.70337" y1="13.8843" x2="3.76604" y2="17.9835" gradientUnits="userSpaceOnUse">
<stop stop-color="#CEA7FF"/>
<stop offset="1" stop-color="#9348F3"/>
</linearGradient>
<linearGradient id="paint1_linear_51_577" x1="9.82009" y1="5.56903" x2="8.95285" y2="9.68805" gradientUnits="userSpaceOnUse">
<stop stop-color="#CEA7FF"/>
<stop offset="1" stop-color="#9348F3"/>
</linearGradient>
<linearGradient id="paint2_linear_51_577" x1="9.81342" y1="22.2301" x2="8.94038" y2="26.3621" gradientUnits="userSpaceOnUse">
<stop stop-color="#CEA7FF"/>
<stop offset="1" stop-color="#9348F3"/>
</linearGradient>
</defs>
</svg>
