<svg width="63" height="63" viewBox="0 0 63 63" fill="none" xmlns="http://www.w3.org/2000/svg">
<path d="M31.4998 25.565C28.6281 25.565 25.874 24.4294 23.8433 22.4082C21.8125 20.3868 20.6718 17.6455 20.6718 14.7868C20.6718 11.9282 21.8127 9.18687 23.8433 7.16549C25.874 5.14412 28.628 4.00863 31.4998 4.00863C34.3717 4.00863 37.1257 5.14423 39.1564 7.16549C41.1871 9.18687 42.3279 11.9282 42.3279 14.7868C42.3248 17.6446 41.1826 20.3841 39.1528 22.4046C37.123 24.425 34.3707 25.5619 31.4998 25.565ZM31.4998 5.9683C29.1501 5.9683 26.8966 6.8974 25.2354 8.55126C23.5738 10.2048 22.6405 12.4479 22.6405 14.7868C22.6405 17.1258 23.5739 19.3689 25.2354 21.0224C26.8966 22.6763 29.1501 23.6053 31.4998 23.6053C33.8496 23.6053 36.1031 22.6762 37.7642 21.0224C39.4258 19.3689 40.3591 17.1258 40.3591 14.7868C40.3565 12.4488 39.4222 10.2074 37.7615 8.55395C36.1004 6.90088 33.8487 5.97099 31.4998 5.9683ZM33.4686 17.7263C33.4686 17.1852 33.9093 16.7465 34.4529 16.7465C34.9965 16.7465 35.4373 17.1852 35.4373 17.7263C35.4364 18.5058 35.1248 19.253 34.5716 19.8041C34.0179 20.3549 33.2673 20.665 32.4842 20.6659V21.6457C32.4842 22.1868 32.0434 22.6255 31.4998 22.6255C30.9562 22.6255 30.5154 22.1868 30.5154 21.6457V20.6659C29.7323 20.665 28.9817 20.3549 28.428 19.8041C27.8747 19.253 27.5632 18.5058 27.5623 17.7263V17.1791C27.5619 16.5619 27.7565 15.9604 28.1191 15.46C28.4812 14.9591 28.9927 14.5851 29.5811 14.39L30.5154 14.0803V10.8675C29.9718 10.8679 29.5315 11.3062 29.531 11.8473C29.531 12.3884 29.0902 12.8272 28.5467 12.8272C28.0031 12.8272 27.5623 12.3884 27.5623 11.8473C27.5632 11.0678 27.8747 10.3207 28.428 9.7695C28.9817 9.21878 29.7323 8.90865 30.5154 8.90778V7.92794C30.5154 7.38685 30.9562 6.9481 31.4998 6.9481C32.0434 6.9481 32.4841 7.38685 32.4841 7.92794V8.90778C33.2672 8.90865 34.0178 9.21878 34.5716 9.7695C35.1248 10.3207 35.4364 11.0678 35.4373 11.8473V12.3945C35.4377 13.0117 35.243 13.6132 34.8805 14.1137C34.5184 14.6145 34.0069 14.9885 33.4185 15.1836L32.4842 15.4933V18.7062C33.0278 18.7057 33.4681 18.2674 33.4686 17.7263ZM32.7958 13.3241C33.1979 13.1911 33.469 12.8167 33.4686 12.3946V11.8474C33.4681 11.3063 33.0278 10.868 32.4842 10.8675V13.4273L32.7958 13.3241ZM30.5154 16.1464L30.2038 16.2496C29.8017 16.3826 29.5306 16.757 29.531 17.1792V17.7264C29.5315 18.2675 29.9718 18.7058 30.5154 18.7062V16.1464ZM48.2345 29.4859C47.9734 29.4864 47.7229 29.3827 47.5384 29.199L42.6798 24.3624C40.1033 27.3474 36.4294 29.1758 32.4845 29.4361V35.365C32.4845 35.9061 32.0438 36.3448 31.5002 36.3448C30.9566 36.3448 30.5158 35.9061 30.5158 35.365V29.4361C26.5709 29.1759 22.897 27.3475 20.3206 24.3624L15.462 29.199C15.0757 29.5703 14.4618 29.5647 14.0821 29.1867C13.7023 28.8088 13.6967 28.1977 14.0698 27.8132L19.1252 22.7806C17.182 19.8092 16.3835 16.2389 16.877 12.7273C17.3701 9.21611 19.1217 6.00057 21.809 3.67337C24.4967 1.34674 27.9384 0.0650024 31.5002 0.0650024C35.0621 0.0650024 38.5037 1.34663 41.1915 3.67337C43.8787 6.00045 45.6303 9.216 46.1234 12.7273C46.6169 16.2389 45.818 19.8092 43.8748 22.7806L48.9306 27.8132C49.2118 28.0936 49.2962 28.5148 49.1437 28.8809C48.9912 29.2471 48.6326 29.4859 48.2345 29.4859ZM31.5002 2.05053C28.1064 2.05053 24.8513 3.39251 22.4515 5.78129C20.0516 8.17008 18.7035 11.4101 18.7035 14.7884C18.7035 18.1666 20.0516 21.4067 22.4515 23.7955C24.8513 26.1843 28.1064 27.5263 31.5002 27.5263C34.8941 27.5263 38.1491 26.1843 40.549 23.7955C42.9488 21.4067 44.297 18.1666 44.297 14.7884C44.293 11.4115 42.9435 8.17366 40.5446 5.78566C38.1457 3.39766 34.8929 2.05445 31.5002 2.05053Z" fill="url(#paint0_linear_1152_1302)"/>
<path d="M36.0927 41.3839C34.9426 40.0501 33.2652 39.2829 31.4996 39.2829C29.7339 39.2824 28.0562 40.0497 26.9061 41.3839C25.756 42.7176 25.2489 44.4847 25.5174 46.2222L25.9898 49.2755C26.2618 51.0366 27.3675 52.5606 28.9614 53.372C30.5548 54.1834 32.4431 54.1834 34.037 53.372C35.6309 52.5606 36.7365 51.0366 37.0085 49.2755L37.4809 46.2222C37.7495 44.4852 37.2423 42.718 36.0927 41.3839Z" fill="#88E900"/>
<path d="M21.1238 61.3689C20.2053 60.4547 19.6885 59.2151 19.6872 57.922C19.5 55.8285 21.702 53.9808 21.702 53.9808L23.8618 52.4144C24.0728 52.2569 24.3382 52.1895 24.5988 52.2285C24.8598 52.267 25.094 52.4082 25.2492 52.6204C25.4043 52.8325 25.468 53.0976 25.4249 53.3566C25.3819 53.6155 25.2369 53.8469 25.0211 53.9983L22.8612 55.5651C22.1902 56.0511 21.7578 56.7983 21.6717 57.6198C21.5855 58.4417 21.8536 59.261 22.4091 59.8752C22.965 60.4889 23.756 60.8393 24.5861 60.8393H38.4134C39.2435 60.8393 40.035 60.4889 40.5905 59.8752C41.1464 59.2609 41.4144 58.4412 41.3283 57.6198C41.2422 56.7979 40.8093 56.0512 40.1383 55.5648L37.9784 53.9984C37.7631 53.847 37.6177 53.6156 37.575 53.3567C37.532 53.0977 37.5952 52.8326 37.7508 52.6205C37.9059 52.4083 38.1402 52.267 38.4007 52.2286C38.6618 52.1896 38.9277 52.257 39.1381 52.4145L41.298 53.9804C42.4195 54.7936 43.1424 56.0424 43.2861 57.4164C43.4302 58.7905 42.982 60.1604 42.053 61.1866C41.124 62.2128 39.8012 62.7989 38.4134 62.7989H24.5862C23.2871 62.7976 22.0418 62.2832 21.1238 61.3689Z" fill="#88E900"/>
<path d="M14.2938 39.5059L14.8541 36.4396C15.124 34.9606 14.7205 33.4401 13.7533 32.2862C12.7856 31.1326 11.3539 30.4656 9.84396 30.4656C8.33445 30.4656 6.90231 31.1326 5.93507 32.2862C4.96784 33.4401 4.56443 34.9615 4.83424 36.4404L5.39278 39.5064C5.6477 40.9005 6.54725 42.0938 7.82029 42.7276C9.09377 43.3615 10.5928 43.3615 11.8659 42.7276C13.1393 42.0937 14.0394 40.9 14.2938 39.5059Z" fill="#88E900"/>
<path d="M1.25826 48.8095C0.453575 48.009 0.00139618 46.9237 7.62939e-05 45.7912C-0.00386047 44.4732 0.60778 43.2279 1.65499 42.4212L2.73164 41.5871C3.161 41.2612 3.77403 41.3404 4.10582 41.7647C4.43717 42.1886 4.36377 42.7992 3.94102 43.1334L2.86438 43.968C2.35242 44.3648 2.0303 44.9566 1.97669 45.6005C1.92263 46.2444 2.14236 46.8813 2.58225 47.3568C3.02179 47.8318 3.64138 48.1022 4.29044 48.1022H15.3971C16.0462 48.1022 16.6659 47.8318 17.1053 47.3568C17.5448 46.8813 17.7645 46.2444 17.7109 45.6005C17.6573 44.9566 17.3351 44.3648 16.8228 43.968L15.7461 43.1334C15.5374 42.9751 15.4007 42.7397 15.3669 42.4803C15.3335 42.2209 15.4051 41.9589 15.5664 41.7525C15.7276 41.5464 15.9654 41.4126 16.2264 41.3815C16.4874 41.3505 16.7498 41.4253 16.9555 41.5875L18.0321 42.4217C18.9787 43.1549 19.5737 44.2488 19.673 45.439C19.7719 46.6288 19.3663 47.8055 18.5537 48.6839C17.7412 49.5623 16.5968 50.0619 15.3971 50.0619H4.29045C3.15274 50.0605 2.06245 49.6104 1.25826 48.8095Z" fill="#88E900"/>
<path d="M55.1777 42.728C56.4507 42.0941 57.3503 40.9008 57.6052 39.5067L58.1655 36.4408C58.4354 34.9619 58.0324 33.4405 57.0647 32.2865C56.0974 31.133 54.6653 30.4659 53.1558 30.4659C51.6458 30.4659 50.2141 31.133 49.2465 32.2865C48.2792 33.4405 47.8758 34.9619 48.1461 36.4408L48.7046 39.5067C48.9595 40.9009 49.8586 42.0941 51.1321 42.728C52.4052 43.3618 53.9042 43.3618 55.1777 42.728Z" fill="#88E900"/>
<path d="M44.5706 48.8098C43.7659 48.0093 43.3137 46.924 43.3124 45.7916C43.3085 44.4735 43.9201 43.2283 44.9674 42.4216L46.044 41.5875C46.2501 41.4252 46.5125 41.3508 46.7735 41.3819C47.0341 41.4129 47.2718 41.5468 47.4331 41.7528C47.5948 41.9593 47.6664 42.2213 47.6326 42.4807C47.5988 42.7401 47.4625 42.9754 47.2534 43.1338L46.1767 43.9684C45.6648 44.3651 45.3426 44.957 45.289 45.6008C45.235 46.2448 45.4547 46.8817 45.8946 47.3572C46.3341 47.8322 46.9537 48.1025 47.6028 48.1025H58.7095C59.3586 48.1025 59.9782 47.8322 60.4177 47.3572C60.8575 46.8817 61.0773 46.2447 61.0232 45.6008C60.9696 44.957 60.6475 44.3651 60.1355 43.9684L59.0584 43.1338C58.6357 42.7995 58.5623 42.1889 58.8941 41.765C59.2259 41.3407 59.8385 41.262 60.2678 41.5879L61.3445 42.422C62.291 43.1552 62.8861 44.2491 62.9854 45.4394C63.0842 46.6292 62.6787 47.8059 61.8661 48.6843C61.0535 49.5626 59.9092 50.0622 58.7095 50.0622H47.6028C46.4651 50.0608 45.3748 49.6107 44.5706 48.8098Z" fill="#88E900"/>
<defs>
<linearGradient id="paint0_linear_1152_1302" x1="31.5062" y1="0.0650024" x2="31.5062" y2="36.3448" gradientUnits="userSpaceOnUse">
<stop stop-color="#D7B8FF"/>
<stop offset="1" stop-color="#A45EFF"/>
</linearGradient>
</defs>
</svg>
