<svg width="22" height="18" viewBox="0 0 22 18" fill="none" xmlns="http://www.w3.org/2000/svg">
<path d="M22 4.50433V13.6014C22 15.799 20.2475 17.5518 18.0776 17.5518H4.25116C2.0533 17.5518 0.300758 15.7991 0.300758 13.6292V4.50428C0.300758 3.94794 0.411951 3.39159 0.634533 2.91846L7.25563 8.92752C8.39629 9.9568 9.75931 10.4577 11.1503 10.4577C12.5413 10.4577 13.9323 9.957 15.045 8.92752L21.6661 2.91846C21.8886 3.41931 21.9998 3.94794 21.9998 4.50428L22 4.50433Z" fill="white"/>
<path d="M8.00713 8.09238L1.24694 1.97204C1.9702 1.10968 3.05512 0.581055 4.25147 0.581055H18.0779C19.274 0.581055 20.3592 1.10968 21.0547 1.97204L14.2945 8.09238C12.4861 9.7337 9.81551 9.76167 8.00723 8.09238H8.00713Z" fill="white"/>
</svg>
