<svg width="20" height="21" viewBox="0 0 20 21" fill="none" xmlns="http://www.w3.org/2000/svg">
<path d="M15 0.355469H5C2.23858 0.355469 0 2.59404 0 5.35547V15.3555C0 18.1169 2.23858 20.3555 5 20.3555H15C17.7614 20.3555 20 18.1169 20 15.3555V5.35547C20 2.59404 17.7614 0.355469 15 0.355469Z" fill="white"/>
<path d="M13.9997 9.72528C14.1231 10.5575 13.981 11.4075 13.5935 12.1543C13.206 12.9011 12.5929 13.5067 11.8413 13.885C11.0898 14.2632 10.2382 14.3949 9.40749 14.2612C8.57683 14.1275 7.80947 13.7354 7.21455 13.1404C6.61962 12.5455 6.22744 11.7782 6.09377 10.9475C5.96011 10.1168 6.09177 9.26518 6.47003 8.51366C6.84829 7.76214 7.45389 7.14902 8.20069 6.76152C8.94749 6.37402 9.79746 6.23187 10.6297 6.35528C11.4786 6.48117 12.2646 6.87675 12.8714 7.48359C13.4782 8.09043 13.8738 8.87636 13.9997 9.72528Z" fill="white" stroke="black" stroke-width="2" stroke-linecap="round" stroke-linejoin="round"/>
<path d="M15.5 4.85547H15.51" stroke="black" stroke-width="2" stroke-linecap="round" stroke-linejoin="round"/>
</svg>
