<svg width="18" height="18" viewBox="0 0 18 18" fill="none" xmlns="http://www.w3.org/2000/svg">
<path d="M7.3733 12.1908C4.36374 12.1908 1.91553 9.76544 1.91553 6.78496C1.91553 3.8043 4.36374 1.37939 7.3733 1.37939C8.90845 1.37939 10.3811 2.02521 11.4139 3.15129C11.7301 3.49587 11.7044 4.02916 11.3561 4.34218C11.0084 4.65498 10.4698 4.62975 10.1533 4.28498C9.44273 3.51014 8.42929 3.06555 7.37312 3.06555C5.30255 3.06555 3.61804 4.73408 3.61804 6.78478C3.61804 8.83584 5.30255 10.5042 7.37312 10.5042C8.42929 10.5042 9.44273 10.0598 10.1533 9.28502C10.4696 8.94024 11.0082 8.91458 11.3561 9.22781C11.7042 9.5408 11.7301 10.0739 11.4139 10.4191C10.3812 11.5447 8.90845 12.1908 7.3733 12.1908Z" fill="#88E900"/>
<path d="M10.3821 16.5053C8.84711 16.5053 7.37428 15.8597 6.34147 14.7334C6.02547 14.3891 6.0512 13.8555 6.39929 13.5423C6.74698 13.2292 7.28564 13.2548 7.60169 13.5994C8.31247 14.3748 9.32591 14.819 10.3821 14.819C12.4531 14.819 14.1373 13.1506 14.1373 11.0999C14.1373 9.04903 12.4531 7.38058 10.3821 7.38058C9.32591 7.38058 8.31247 7.8251 7.60169 8.59993C7.28564 8.94452 6.74716 8.97037 6.39929 8.65714C6.0512 8.34408 6.02547 7.81081 6.34147 7.46608C7.37428 6.33996 8.84711 5.69434 10.3821 5.69434C13.3919 5.69434 15.8401 8.1193 15.8401 11.0999C15.8401 14.0804 13.3916 16.5053 10.3821 16.5053Z" fill="#88E900"/>
</svg>
