<svg width="149" height="34" viewBox="0 0 149 34" fill="none" xmlns="http://www.w3.org/2000/svg">
<path fill-rule="evenodd" clip-rule="evenodd" d="M4.8726 20.038L1.00614 24.4014L8.95287 31.3832C12.94 34.8863 19.0335 34.5071 22.5516 30.5369C25.8709 26.7912 25.7196 21.1787 22.3432 17.6142L19.9161 15.4277L19.1731 14.7749L19.1813 14.7658L17.9311 13.6393L17.9089 13.6643L13.7549 10.0146L6.84924 17.8076L4.38095 15.6389C1.05839 12.7197 0.740897 7.66364 3.67267 4.35511C6.60444 1.04678 11.6823 0.730646 15.0051 3.64985L21.6273 9.46814L18.836 12.6181L20.0864 13.7446L23.9541 9.3799L16.0072 2.39813C12.02 -1.10496 5.92657 -0.725802 2.4084 3.24447C-1.10976 7.21454 -0.728751 13.2819 3.25841 16.785L5.78691 19.0064L5.77751 19.0168L7.03647 20.1337L7.05117 20.1171L11.2051 23.7667L18.1108 15.9738L20.5791 18.1424C23.9019 21.0616 24.2191 26.1177 21.2874 29.4262C18.3556 32.7346 13.2777 33.0507 9.95518 30.1315L3.33271 24.3132L6.13156 21.1549L4.8726 20.038ZM16.8465 14.8631L11.0034 21.457L8.1135 18.9182L13.9568 12.3243L16.8465 14.8631Z" fill="#88E900"/>
<path d="M128.454 20.3799V30.9947H122.829V4.14572H138.285V8.81026H128.454V15.7337H137.602V20.3799H128.454ZM142.877 5.15572C142.877 3.33142 143.898 2.41928 145.939 2.41928C147.98 2.41928 149 3.33142 149 5.15572C149 6.0249 148.745 6.70128 148.235 7.18486C147.725 7.66859 146.959 7.91045 145.939 7.91045C143.898 7.91045 142.877 6.99221 142.877 5.15572ZM148.742 10.4631V30.9947H143.117V10.4631H148.742ZM59.9173 23.8509C59.9173 26.2138 59.0566 28.0564 57.3353 29.3787C55.6139 30.7009 53.2778 31.3621 50.3267 31.3621C47.1297 31.3621 44.6706 30.9519 42.9492 30.1315V27.1198C44.0559 27.5851 45.2608 27.9524 46.5642 28.2217C47.8675 28.491 49.1586 28.6256 50.4374 28.6256C52.5276 28.6256 54.1015 28.2308 55.159 27.4412C56.2163 26.6515 56.745 25.5526 56.745 24.1447C56.745 23.2142 56.5575 22.4521 56.1825 21.8584C55.8075 21.2646 55.1804 20.7167 54.3012 20.2147C53.4222 19.7126 52.085 19.1433 50.2898 18.5067C47.7814 17.613 45.9893 16.554 44.9134 15.3297C43.8375 14.1055 43.2996 12.5077 43.2996 10.5365C43.2996 8.46743 44.0804 6.82075 45.6419 5.59647C47.2036 4.37219 49.2693 3.76005 51.8391 3.76005C54.5195 3.76005 56.9848 4.24974 59.2349 5.22911L58.2575 7.94705C56.0319 7.0166 53.8678 6.55138 51.7653 6.55138C50.1054 6.55138 48.8082 6.90641 47.8738 7.61648C46.9392 8.32668 46.4719 9.31228 46.4719 10.5733C46.4719 11.5037 46.6441 12.2658 46.9884 12.8596C47.3327 13.4534 47.9136 13.9982 48.7313 14.4942C49.5489 14.9899 50.8001 15.5378 52.4847 16.1377C55.3127 17.1417 57.2584 18.2191 58.3221 19.3699C59.3856 20.5208 59.9173 22.0144 59.9173 23.8509ZM73.5104 31.3621C70.5224 31.3621 68.1647 30.456 66.4373 28.6439C64.7097 26.832 63.8458 24.3161 63.8458 21.0962C63.8458 17.8518 64.6482 15.2746 66.2529 13.3646C67.8575 11.4547 70.0123 10.4997 72.7173 10.4997C75.2502 10.4997 77.2544 11.3292 78.7299 12.9881C80.2054 14.647 80.9432 16.8355 80.9432 19.5535V21.4818H67.0182C67.0797 23.8447 67.6791 25.6383 68.8165 26.8626C69.9538 28.0869 71.5553 28.699 73.621 28.699C75.7974 28.699 77.9491 28.2461 80.0763 27.3402V30.0581C78.9943 30.5234 77.9706 30.857 77.0054 31.059C76.0402 31.261 74.8752 31.3621 73.5104 31.3621ZM72.6804 13.0526C71.0573 13.0526 69.7632 13.579 68.7979 14.6318C67.8327 15.6848 67.2641 17.1417 67.0921 19.0026H77.6602C77.6602 17.0804 77.2299 15.6082 76.3692 14.5859C75.5084 13.5637 74.2788 13.0526 72.6804 13.0526ZM103.057 30.9947H99.9955V17.9743C99.9955 16.3336 99.6205 15.1093 98.8705 14.3012C98.1203 13.4932 96.9461 13.0891 95.3476 13.0891C93.2328 13.0891 91.6835 13.6585 90.7 14.7971C89.7162 15.9357 89.2244 17.815 89.2244 20.435V30.9947H86.1627V10.8671H88.6527L89.1507 13.6218H89.2981C89.9252 12.6301 90.8044 11.8618 91.9356 11.317C93.0668 10.7721 94.3271 10.4997 95.7166 10.4997C98.1512 10.4997 99.9832 11.0843 101.213 12.2536C102.442 13.4228 103.057 15.293 103.057 17.8641V30.9947ZM115.876 28.846C116.416 28.846 116.939 28.8062 117.443 28.7267C117.947 28.6471 118.347 28.5644 118.642 28.4787V30.8111C118.31 30.9703 117.821 31.1019 117.176 31.2059C116.53 31.31 115.949 31.3621 115.433 31.3621C111.523 31.3621 109.568 29.3113 109.568 25.2098V13.2361H106.672V11.7669L109.568 10.4997L110.859 6.20251H112.629V10.8671H118.494V13.2361H112.629V25.0813C112.629 26.2934 112.918 27.2239 113.496 27.8728C114.074 28.5216 114.867 28.846 115.876 28.846Z" fill="#88E900"/>
</svg>
