<svg width="78" height="77" viewBox="0 0 78 77" fill="none" xmlns="http://www.w3.org/2000/svg">
<path d="M60.273 59.176C72.0455 47.781 72.0864 29.1785 60.3998 17.6263C48.7132 6.07413 29.696 5.91865 17.9235 17.3137C6.15105 28.7087 6.11015 47.3112 17.7968 58.8634C29.4834 70.4156 48.5006 70.571 60.273 59.176Z" stroke="#A45DFF" stroke-width="5"/>
<path d="M57.8849 20.0605C68.2078 30.2647 68.1563 46.6757 57.7839 56.7155C47.4115 66.7554 30.6346 66.6334 20.3116 56.4292C9.98868 46.225 10.0403 29.814 20.4127 19.7742C30.785 9.73434 47.562 9.85634 57.8849 20.0605Z" fill="white" stroke="#A45DFF" stroke-width="2"/>
<g clip-path="url(#clip0_513_10)">
<path d="M49.1667 34.2209C48.5833 33.8985 47.8333 33.8985 47.1667 34.2209L42.5 36.8806L39.3333 38.5731L34.75 41.2328C34.1667 41.5552 33.4167 41.5552 32.75 41.2328L29.1667 39.1373C28.5833 38.8149 28.1667 38.1701 28.1667 37.4448V33.4149C28.1667 32.7701 28.5 32.1254 29.1667 31.7224L32.75 29.7075C33.3333 29.3851 34.0833 29.3851 34.75 29.7075L38.3333 31.803C38.9167 32.1254 39.3333 32.7702 39.3333 33.4955V36.1552L42.5 34.3821V31.6418C42.5 30.997 42.1667 30.3522 41.5 29.9493L34.8333 26.1612C34.25 25.8388 33.5 25.8388 32.8333 26.1612L26 30.0299C25.3333 30.3522 25 30.997 25 31.6418V39.2179C25 39.8627 25.3333 40.5075 26 40.9104L32.75 44.6985C33.3333 45.0209 34.0833 45.0209 34.75 44.6985L39.3333 42.1194L42.5 40.3463L47.0833 37.7672C47.6667 37.4448 48.4167 37.4448 49.0833 37.7672L52.6667 39.7821C53.25 40.1045 53.6667 40.7493 53.6667 41.4746V45.5045C53.6667 46.1493 53.3333 46.794 52.6667 47.197L49.1667 49.2119C48.5833 49.5343 47.8333 49.5343 47.1667 49.2119L43.5833 47.197C43 46.8746 42.5833 46.2299 42.5833 45.5045V42.9254L39.4167 44.6985V47.3582C39.4167 48.003 39.75 48.6478 40.4167 49.0507L47.1667 52.8388C47.75 53.1612 48.5 53.1612 49.1667 52.8388L55.9167 49.0507C56.5 48.7284 56.9167 48.0836 56.9167 47.3582V39.7015C56.9167 39.0567 56.5833 38.4119 55.9167 38.009L49.1667 34.2209Z" fill="#8247E5"/>
</g>
<defs>
<clipPath id="clip0_513_10">
<rect width="32" height="27" fill="white" transform="translate(25 26)"/>
</clipPath>
</defs>
</svg>
