<svg width="19" height="17" viewBox="0 0 19 17" fill="none" xmlns="http://www.w3.org/2000/svg">
<path d="M14.349 5.17608C14.0026 4.9731 13.5573 4.9731 13.1615 5.17608L10.3906 6.85071L8.51042 7.91638L5.78906 9.59101C5.44271 9.794 4.9974 9.794 4.60156 9.59101L2.47396 8.27161C2.1276 8.06862 1.88021 7.66265 1.88021 7.20594V4.66862C1.88021 4.26265 2.07812 3.85668 2.47396 3.60295L4.60156 2.33429C4.94792 2.13131 5.39323 2.13131 5.78906 2.33429L7.91667 3.6537C8.26302 3.85668 8.51042 4.26265 8.51042 4.71937V6.394L10.3906 5.27758V3.5522C10.3906 3.14623 10.1927 2.74026 9.79687 2.48653L5.83854 0.101458C5.49219 -0.101528 5.04687 -0.101528 4.65104 0.101458L0.59375 2.53728C0.197917 2.74026 0 3.14623 0 3.5522V8.32235C0 8.72832 0.197917 9.13429 0.59375 9.38803L4.60156 11.7731C4.94792 11.9761 5.39323 11.9761 5.78906 11.7731L8.51042 10.1492L10.3906 9.0328L13.112 7.40892C13.4583 7.20594 13.9036 7.20594 14.2995 7.40892L16.4271 8.67758C16.7734 8.88056 17.0208 9.28653 17.0208 9.74325V12.2806C17.0208 12.6865 16.8229 13.0925 16.4271 13.3462L14.349 14.6149C14.0026 14.8179 13.5573 14.8179 13.1615 14.6149L11.0339 13.3462C10.6875 13.1432 10.4401 12.7373 10.4401 12.2806V10.6567L8.5599 11.7731V13.4477C8.5599 13.8537 8.75781 14.2597 9.15365 14.5134L13.1615 16.8985C13.5078 17.1015 13.9531 17.1015 14.349 16.8985L18.3568 14.5134C18.7031 14.3104 18.9505 13.9044 18.9505 13.4477V8.62683C18.9505 8.22086 18.7526 7.81489 18.3568 7.56116L14.349 5.17608Z" fill="#8247E5"/>
</svg>
