<svg width="1217" height="503" viewBox="0 0 1217 503" fill="none" xmlns="http://www.w3.org/2000/svg">
<mask id="mask0_1152_1301" style="mask-type:alpha" maskUnits="userSpaceOnUse" x="0" y="0" width="1217" height="503">
<rect width="1217" height="503" rx="25" transform="matrix(-1 0 0 1 1217 0)" fill="#6923FF"/>
</mask>
<g mask="url(#mask0_1152_1301)">
<path d="M798.181 -2.41838L625.43 115.384L701.036 199.023L816.203 124.808L900.601 221.798L1105 87.1112L1050.05 23.4981L1224.12 -57L1383.25 124.808L1502.37 41.5611L1654.9 222.584L1516.44 303.474L1447.86 224.154L1247.86 372.978L1158.63 266.956L1004.34 373.763L1094.89 471.146L984.998 554L888.293 446.015L779.719 530.832L688.289 426.381L805.214 338.422L750.708 276.772L564.33 416.172" stroke="white" stroke-opacity="0.14" stroke-width="61" stroke-linecap="round" stroke-linejoin="round"/>
</g>
</svg>
