<svg width="24" height="25" viewBox="0 0 24 25" fill="none" xmlns="http://www.w3.org/2000/svg">
<path d="M8.61777 9.61129C8.31277 9.69095 8.01619 9.80011 7.73228 9.93716C7.62172 9.98793 7.53664 10.0814 7.4961 10.196C7.45557 10.3106 7.4634 10.4368 7.51737 10.5458C7.57155 10.6547 7.66746 10.737 7.78344 10.7739C7.89922 10.8108 8.02524 10.7992 8.13239 10.7418C9.82231 9.89684 14.1327 9.89684 15.8228 10.7418C15.9299 10.7992 16.0559 10.8108 16.1717 10.7739C16.2877 10.737 16.3836 10.6547 16.4378 10.5458C16.4918 10.4368 16.4996 10.3106 16.459 10.196C16.4185 10.0814 16.3334 9.98793 16.2229 9.93716C15.9422 9.80172 15.6494 9.69276 15.3486 9.61129C16.522 8.67582 17.2526 7.29391 17.365 5.7976C17.4774 4.30108 16.9613 2.82547 15.9405 1.72526C14.92 0.625257 13.4871 0 11.9866 0C10.4858 0 9.05317 0.625257 8.03238 1.72526C7.01184 2.82547 6.49554 4.30113 6.60793 5.7976C6.7203 7.29391 7.45109 8.67582 8.62455 9.61129H8.61777ZM11.9776 0.900745C13.3238 0.901147 14.599 1.50494 15.4524 2.54613C16.3058 3.58731 16.6477 4.95623 16.3839 6.27635C16.12 7.59647 15.2783 8.72899 14.0901 9.36205C12.6872 9.17785 11.2659 9.17785 9.86289 9.36205L9.82476 9.34178H9.82456C8.64668 8.69968 7.81719 7.56475 7.56296 6.24766C7.30853 4.93032 7.65587 3.56828 8.51009 2.53367C9.3643 1.49906 10.6361 0.900307 11.9777 0.900718L11.9776 0.900745Z" fill="white"/>
<path d="M11.6578 8.02885C11.7416 8.11333 11.8556 8.16109 11.9746 8.16149C12.0944 8.16169 12.2092 8.11393 12.2937 8.02885L14.6084 5.71188C14.7828 5.5367 14.7828 5.25338 14.6084 5.0782L12.2937 2.76123C12.2094 2.67675 12.095 2.62939 11.9756 2.62939C11.8564 2.62939 11.742 2.67675 11.6578 2.76123L9.34059 5.0782C9.16642 5.25338 9.16642 5.5367 9.34059 5.71188L11.6578 8.02885ZM11.9768 3.71391L13.6555 5.39504L11.9768 7.07617L10.2957 5.39504L11.9768 3.71391Z" fill="white"/>
<path d="M23.4951 10.8883C23.3889 10.8034 23.2501 10.7713 23.1175 10.8006C22.794 10.8626 22.4611 10.8564 22.1399 10.7825C21.7578 10.6746 21.5399 10.4095 21.2656 10.0724H21.2658C21.1141 9.87818 20.9489 9.69477 20.7713 9.524C20.4377 9.20917 20.0532 8.95314 19.634 8.76673L21.0611 6.06989C21.1193 5.95872 21.1281 5.82829 21.0859 5.71031C21.0438 5.59192 20.9541 5.4966 20.8387 5.44744C20.1099 5.18137 19.3125 5.17194 18.5777 5.42035C18.3419 5.49861 18.2141 5.75325 18.2924 5.989C18.3706 6.22477 18.6251 6.35259 18.861 6.27434C19.2262 6.15334 19.6139 6.11502 19.9959 6.16197L18.5957 8.81387C18.5299 8.93808 18.5261 9.08596 18.5851 9.21337C18.6443 9.34079 18.7597 9.43329 18.8969 9.46339C19.3683 9.59744 19.8005 9.84264 20.1577 10.1781C20.3046 10.3234 20.442 10.4779 20.569 10.6411C20.8837 11.0253 21.2432 11.4614 21.8949 11.648V11.6478C22.1781 11.724 22.4717 11.7559 22.7646 11.7423V14.1155C22.5676 14.9634 22.1524 15.7452 21.5601 16.3831C21.1549 16.77 20.7019 17.1031 20.2116 17.3742C19.7285 17.6641 19.3486 17.8955 19.2003 18.2731C18.8249 19.2035 17.3035 22.4351 16.8608 23.3746H15.2877L14.8988 21.053C14.8934 21.0233 14.886 20.994 14.8763 20.9655C15.1249 20.8676 15.3647 20.7488 15.5933 20.6104C15.8042 20.4787 15.8686 20.201 15.7372 19.9901C15.6055 19.779 15.3278 19.7146 15.1167 19.8463C13.4627 20.8801 9.83091 20.8801 8.17685 19.8463H8.17705C7.96595 19.7146 7.68825 19.779 7.55683 19.9901C7.42519 20.201 7.4896 20.4787 7.7005 20.6104C7.92905 20.7488 8.16883 20.8676 8.41745 20.9655C8.40782 20.994 8.40039 21.0233 8.39497 21.053L8.00169 23.3746H6.3882C5.8645 22.5049 3.90485 19.1923 2.95412 16.9089C1.95624 14.5154 2.63046 11.8928 3.77001 10.6429C4.43477 9.89929 5.2242 9.27727 6.10265 8.80452C6.21682 8.75436 6.30491 8.65905 6.34605 8.54126C6.38718 8.42347 6.37755 8.29405 6.31936 8.18369C6.26117 8.07333 6.15983 7.99206 6.03944 7.95935C5.91925 7.92665 5.79062 7.94551 5.68468 8.01132C4.71531 8.53102 3.84384 9.21545 3.10922 10.034C2.92642 10.2372 2.76168 10.4559 2.61701 10.6879C1.82362 10.3149 1.43713 9.73956 1.57418 9.10347C1.64361 8.79726 1.82099 8.52639 2.07422 8.34054C2.32725 8.15473 2.63886 8.06644 2.9519 8.09213C3.20011 8.11199 3.41743 7.92678 3.43729 7.67857C3.45716 7.43036 3.27195 7.21305 3.02374 7.19318C2.493 7.15044 1.96467 7.30094 1.53605 7.61697C1.10745 7.9328 0.807444 8.39289 0.691095 8.91243C0.509096 9.75297 0.830349 10.8295 2.19465 11.4835H2.19445C1.39824 13.3191 1.37235 15.3975 2.12261 17.2521C3.2463 19.949 5.6488 23.8889 5.74989 24.0549V24.0551C5.83096 24.1899 5.97664 24.2726 6.13415 24.273H8.38152C8.60345 24.276 8.79448 24.1167 8.831 23.8978L9.28047 21.2414V21.2412C10.8402 21.6189 12.4673 21.6189 14.0268 21.2412L14.4763 23.8976V23.8978C14.5112 24.1068 14.6872 24.2632 14.8989 24.273H17.1462C17.32 24.2734 17.4783 24.1737 17.553 24.0167C17.636 23.8414 19.5756 19.7199 20.0251 18.5984C20.2157 18.4184 20.4316 18.2671 20.6656 18.1489C21.2194 17.8409 21.7315 17.4633 22.1894 17.0252C22.9272 16.2501 23.4373 15.2867 23.6636 14.2407C23.6658 14.2138 23.6658 14.1867 23.6636 14.1599V11.2383C23.6636 11.1018 23.6016 10.973 23.4951 10.8877L23.4951 10.8883Z" fill="white"/>
<path d="M19.1695 12.1375C19.1695 12.3857 18.9682 12.5869 18.72 12.5869C18.4718 12.5869 18.2705 12.3857 18.2705 12.1375C18.2705 11.8892 18.4718 11.688 18.72 11.688C18.9682 11.688 19.1695 11.8892 19.1695 12.1375Z" fill="white"/>
</svg>
