<svg width="18" height="22" viewBox="0 0 18 22" fill="none" xmlns="http://www.w3.org/2000/svg">
<mask id="path-1-inside-1_2357_2140" fill="white">
<path d="M9.80076 0.0653305C12.5262 0.507698 14.377 3.07554 13.9347 5.80076C13.4925 8.52623 10.9246 10.377 8.19924 9.93466C5.47377 9.49247 3.62297 6.92462 4.06534 4.19924C4.50753 1.47394 7.07537 -0.377037 9.80076 0.0653305Z"/>
</mask>
<path d="M13.9347 5.80076L11.9605 5.4803L11.9605 5.48046L13.9347 5.80076ZM8.19924 9.93466L8.51967 7.9605L8.51954 7.96048L8.19924 9.93466ZM4.06534 4.19924L6.0395 4.51967L6.03952 4.51956L4.06534 4.19924ZM9.48034 2.0395C11.1157 2.30492 12.2259 3.84555 11.9605 5.4803L15.9088 6.12121C16.5282 2.30554 13.9368 -1.28953 10.1212 -1.90883L9.48034 2.0395ZM11.9605 5.48046C11.6952 7.11559 10.1547 8.22589 8.51967 7.9605L7.87881 11.9088C11.6946 12.5282 15.2898 9.93688 15.9089 6.12106L11.9605 5.48046ZM8.51954 7.96048C6.88441 7.69519 5.77411 6.15469 6.0395 4.51967L2.09117 3.8788C1.47182 7.69456 4.06312 11.2898 7.87894 11.9089L8.51954 7.96048ZM6.03952 4.51956C6.30481 2.88452 7.84537 1.77412 9.48033 2.03949L10.1212 -1.90883C6.30537 -2.52819 2.71025 0.0633489 2.09115 3.87892L6.03952 4.51956Z" fill="white" mask="url(#path-1-inside-1_2357_2140)"/>
<path d="M18 20.9517C17.9993 21.1613 17.9079 21.3624 17.7458 21.5107C17.5837 21.659 17.3639 21.7427 17.1348 21.7433H1.01651C0.787394 21.7427 0.567647 21.659 0.405548 21.5107C0.243445 21.3624 0.152035 21.1613 0.151367 20.9517C0.151367 18.786 1.0917 16.7092 2.76522 15.1778C4.43888 13.6464 6.70881 12.7861 9.07548 12.7861C11.4421 12.7861 13.7121 13.6464 15.3857 15.1778C17.0592 16.7092 17.9996 18.7862 17.9996 20.9517H18Z" fill="white"/>
</svg>
