<svg width="22" height="22" viewBox="0 0 22 22" fill="none" xmlns="http://www.w3.org/2000/svg">
<path d="M21.608 0.399536C21.5839 0.211524 21.436 0.0636388 21.248 0.0394874C20.9942 0.00623198 15.0056 -0.678394 8.92544 5.31445C8.0099 5.36238 3.57153 5.70571 1.36566 7.91136L0.117191 9.15983C0.0304312 9.24938 -0.0115553 9.37311 0.00275096 9.49684C0.0204003 9.62578 0.0975015 9.73892 0.210829 9.80283L3.30489 11.6567C3.46894 11.7558 3.67944 11.7299 3.8147 11.5943L5.37935 10.0274L8.20308 12.8553L6.01624 15.0421C5.85367 15.2048 5.85367 15.4685 6.01624 15.631C6.1788 15.7936 6.44243 15.7936 6.60518 15.631L8.79203 13.4442L11.6135 16.2677L10.0466 17.8324V17.8326C9.91101 17.9678 9.88519 18.1783 9.98421 18.3424L11.8445 21.4364C11.9084 21.5498 12.0215 21.6269 12.1504 21.6445H12.2025C12.3126 21.644 12.4182 21.5999 12.4958 21.5217L13.7443 20.2733C15.9499 18.0697 16.2933 13.6314 16.3412 12.7135C22.3253 6.64187 21.6428 0.653492 21.6076 0.399518L21.608 0.399536ZM3.45502 10.7806L1.0913 9.36773L1.95481 8.50627C3.49459 6.96444 6.40973 6.42548 8.00359 6.23819L3.45502 10.7806ZM12.1943 15.6789L9.37895 12.8552L11.8759 10.3582C12.0385 10.1957 12.0385 9.93205 11.8759 9.76948C11.7133 9.60673 11.4497 9.60673 11.2871 9.76948L8.7902 12.2664L5.96851 9.44473L9.39569 6.01775C14.4105 1.00294 19.4667 0.798904 20.8107 0.836477C20.8544 2.17022 20.6526 7.22674 15.638 12.2411L13.0079 14.8733L12.1943 15.6789ZM13.139 19.6948L12.2796 20.5561L10.8606 18.1924L14.6641 14.3929L15.4153 13.6418C15.2302 15.2356 14.6912 18.1508 13.1472 19.6948H13.139Z" fill="white"/>
<path d="M17.2921 6.96409C17.2908 6.15517 16.9136 5.39273 16.2714 4.90095C15.6291 4.40917 14.7946 4.24404 14.0133 4.45395C13.2321 4.66389 12.593 5.22515 12.2837 5.97276C11.9744 6.72018 12.0303 7.56899 12.4347 8.26942C12.8392 8.96999 13.5465 9.44265 14.3483 9.54857C15.1503 9.65447 15.9559 9.38136 16.5283 8.80971C17.0184 8.32074 17.2932 7.65655 17.2921 6.96412L17.2921 6.96409ZM15.9396 8.21256C15.6064 8.54474 15.155 8.73106 14.6846 8.73073C14.2142 8.73017 13.7631 8.54309 13.4305 8.21018C13.0982 7.87744 12.9113 7.42619 12.9113 6.95576C12.9113 6.48534 13.0982 6.03408 13.4305 5.70135C13.7631 5.36861 14.2142 5.18132 14.6846 5.18099C15.155 5.18043 15.6064 5.36677 15.9396 5.69897C16.2749 6.03301 16.4637 6.48667 16.4637 6.96009C16.4637 7.43328 16.2749 7.88715 15.9396 8.22102V8.21256Z" fill="white"/>
<path d="M7.71994 16.6694L5.95126 18.4381C5.86319 18.5135 5.81062 18.6222 5.80597 18.7381C5.80151 18.8539 5.84573 18.9665 5.92766 19.0484C6.00959 19.1303 6.12217 19.1746 6.23792 19.1701C6.35385 19.1655 6.46253 19.1129 6.53796 19.0248L8.30665 17.2561C8.44803 17.091 8.43855 16.845 8.28491 16.6911C8.13108 16.5375 7.88511 16.528 7.71994 16.6694L7.71994 16.6694Z" fill="white"/>
<path d="M4.39084 16.6694L2.62215 18.4381C2.53409 18.5135 2.48152 18.6222 2.47687 18.7381C2.47241 18.8539 2.51663 18.9665 2.59856 19.0484C2.68049 19.1303 2.79307 19.1746 2.90882 19.1701C3.02475 19.1655 3.13343 19.1129 3.20886 19.0248L4.97755 17.2561C5.11893 17.091 5.10945 16.845 4.95581 16.6911C4.80198 16.5375 4.55601 16.528 4.39084 16.6694L4.39084 16.6694Z" fill="white"/>
<path d="M4.39084 13.3403L2.62215 15.109C2.53409 15.1844 2.48152 15.2931 2.47687 15.409C2.47241 15.5248 2.51663 15.6374 2.59856 15.7193C2.68049 15.8012 2.79307 15.8455 2.90882 15.841C3.02475 15.8364 3.13343 15.7838 3.20886 15.6957L4.97755 13.927C5.11893 13.7619 5.10945 13.5159 4.95581 13.362C4.80198 13.2084 4.55601 13.1989 4.39084 13.3403L4.39084 13.3403Z" fill="white"/>
</svg>
