<svg width="29" height="29" viewBox="0 0 29 29" fill="none" xmlns="http://www.w3.org/2000/svg">
<circle cx="14.4081" cy="14.4081" r="14.4081" fill="#23034B"/>
<path d="M8.83829 17.6356C8.93895 17.5324 9.07736 17.4722 9.22416 17.4722H22.5368C22.7801 17.4722 22.9017 17.7731 22.7298 17.9494L20.1 20.6453C19.9993 20.7485 19.8609 20.8086 19.7141 20.8086H6.4014C6.15814 20.8086 6.0365 20.5077 6.20847 20.3314L8.83829 17.6356Z" fill="url(#paint0_linear_1704_8982)"/>
<path d="M8.83829 6.32448C8.94314 6.20065 9.08156 6.12842 9.22416 6.12842H22.5368C22.7801 6.12842 22.9017 6.48958 22.7298 6.70112L20.1 9.93613C19.9993 10.06 19.8609 10.1322 19.7141 10.1322H6.4014C6.15814 10.1322 6.0365 9.77103 6.20847 9.55949L8.83829 6.32448Z" fill="url(#paint1_linear_1704_8982)"/>
<path d="M20.1 11.6629C19.9993 11.539 19.8609 11.4668 19.7141 11.4668H6.4014C6.15814 11.4668 6.0365 11.828 6.20847 12.0395L8.83829 15.2745C8.93895 15.3983 9.07736 15.4706 9.22416 15.4706H22.5368C22.7801 15.4706 22.9017 15.1094 22.7298 14.8979L20.1 11.6629Z" fill="url(#paint2_linear_1704_8982)"/>
<defs>
<linearGradient id="paint0_linear_1704_8982" x1="21.2651" y1="5.79642" x2="11.6876" y2="23.692" gradientUnits="userSpaceOnUse">
<stop stop-color="#00FFA3"/>
<stop offset="1" stop-color="#DC1FFF"/>
</linearGradient>
<linearGradient id="paint1_linear_1704_8982" x1="17.2365" y1="1.60862" x2="4.6754" y2="21.1672" gradientUnits="userSpaceOnUse">
<stop stop-color="#00FFA3"/>
<stop offset="1" stop-color="#DC1FFF"/>
</linearGradient>
<linearGradient id="paint2_linear_1704_8982" x1="19.238" y1="2.23191" x2="6.67688" y2="21.7905" gradientUnits="userSpaceOnUse">
<stop stop-color="#00FFA3"/>
<stop offset="1" stop-color="#DC1FFF"/>
</linearGradient>
</defs>
</svg>
