<svg width="22" height="19" viewBox="0 0 22 19" fill="none" xmlns="http://www.w3.org/2000/svg">
<path d="M22 0.355271C21.0424 1.03075 19.9821 1.54738 18.86 1.88527C18.2577 1.19278 17.4573 0.701963 16.567 0.479197C15.6767 0.256431 14.7395 0.312466 13.8821 0.639724C13.0247 0.966982 12.2884 1.54967 11.773 2.30899C11.2575 3.0683 10.9877 3.96761 11 4.88527V5.88527C9.24263 5.93084 7.50127 5.54108 5.93101 4.75072C4.36074 3.96035 3.01032 2.79391 2 1.35527C2 1.35527 -2 10.3553 7 14.3553C4.94053 15.7532 2.48716 16.4542 0 16.3553C9 21.3553 20 16.3553 20 4.85527C19.9991 4.57672 19.9723 4.29887 19.92 4.02527C20.9406 3.01876 21.6608 1.74798 22 0.355271Z" fill="white"/>
</svg>
