<svg width="35" height="35" viewBox="0 0 35 35" fill="none" xmlns="http://www.w3.org/2000/svg">
<g clip-path="url(#clip0_1704_9455)">
<path d="M17.5 35C20.9612 35 24.3447 33.9736 27.2225 32.0507C30.1004 30.1278 32.3434 27.3947 33.6679 24.197C34.9925 20.9993 35.339 17.4806 34.6638 14.0859C33.9885 10.6913 32.3218 7.57306 29.8744 5.12564C27.427 2.67822 24.3088 1.01151 20.9141 0.336265C17.5195 -0.338976 14.0008 0.00758244 10.8031 1.33212C7.60538 2.65665 4.87226 4.89967 2.94933 7.77753C1.02641 10.6554 5.09635e-05 14.0388 5.09635e-05 17.5C-0.00550552 19.7997 0.443353 22.0778 1.32084 24.2035C2.19833 26.3292 3.48716 28.2606 5.11329 29.8868C6.73942 31.5129 8.67082 32.8017 10.7965 33.6792C12.9222 34.5567 15.2004 35.0056 17.5 35Z" fill="#2775CA"/>
<path d="M22.3125 20.2707C22.3125 17.7187 20.7813 16.8436 17.7189 16.479C15.5316 16.1875 15.0944 15.6039 15.0944 14.5831C15.0944 13.5623 15.8238 12.9062 17.2817 12.9062C18.594 12.9062 19.324 13.3434 19.688 14.4374C19.7261 14.5429 19.7954 14.6342 19.8867 14.6994C19.978 14.7645 20.087 14.8003 20.1991 14.8021H21.3656C21.4331 14.8037 21.5002 14.7916 21.5628 14.7665C21.6255 14.7414 21.6824 14.7039 21.7301 14.6561C21.7778 14.6084 21.8154 14.5515 21.8405 14.4889C21.8655 14.4262 21.8776 14.3591 21.876 14.2917V14.2184C21.7349 13.4283 21.3366 12.7069 20.7433 12.1663C20.1499 11.6258 19.3946 11.2963 18.5947 11.2293V9.47912C18.5947 9.18766 18.3758 8.96872 18.0111 8.89551H16.9171C16.6249 8.89551 16.4067 9.11445 16.3335 9.47912V11.156C14.1461 11.4475 12.7607 12.9062 12.7607 14.7288C12.7607 17.1351 14.2187 18.0834 17.2811 18.4481C19.3233 18.812 19.9795 19.2499 19.9795 20.4164C19.9795 21.583 18.9587 22.3855 17.5732 22.3855C15.6773 22.3855 15.0178 21.583 14.8023 20.4897C14.7291 20.1982 14.5108 20.0518 14.2919 20.0518H13.0535C12.986 20.0502 12.919 20.0623 12.8563 20.0873C12.7937 20.1124 12.7367 20.15 12.689 20.1977C12.6413 20.2454 12.6038 20.3023 12.5787 20.365C12.5536 20.4276 12.5415 20.4947 12.5431 20.5622V20.6354C12.8346 22.458 14.0018 23.771 16.4108 24.1357V25.8851C16.4108 26.1773 16.6291 26.3955 16.9937 26.4687H18.0877C18.3792 26.4687 18.5981 26.2498 18.6707 25.8851V24.1357C20.8587 23.771 22.3167 22.2391 22.3167 20.268L22.3125 20.2707Z" fill="white"/>
<path d="M13.781 27.9269C8.09339 25.8853 5.17673 19.5416 7.28877 13.9272C8.38209 10.8648 10.7884 8.53107 13.781 7.43499C14.0725 7.28926 14.2182 7.07032 14.2182 6.70565V5.68761C14.2182 5.39615 14.0725 5.17721 13.781 5.104C13.7078 5.104 13.5621 5.104 13.4888 5.17721C6.56081 7.36454 2.77046 14.7291 4.95779 21.6564C5.59324 23.6574 6.69971 25.4765 8.18423 26.961C9.66874 28.4455 11.4879 29.552 13.4888 30.1875C13.781 30.3332 14.0725 30.1875 14.1457 29.896C14.2182 29.8228 14.2182 29.7503 14.2182 29.6046V28.5838C14.2182 28.3648 13.9999 28.0734 13.781 27.9269ZM21.5102 5.17998C21.2181 5.03425 20.9266 5.17998 20.8541 5.47144C20.7809 5.54465 20.7809 5.61717 20.7809 5.76359V6.78162C20.7809 7.07308 20.9998 7.36454 21.218 7.51027C26.9057 9.55187 29.8223 15.8956 27.7103 21.5107C26.6163 24.5731 24.21 26.9061 21.218 28.0029C20.9266 28.1486 20.7809 28.3676 20.7809 28.7323V29.753C20.7809 30.0445 20.9266 30.2635 21.218 30.336C21.2913 30.336 21.437 30.336 21.5102 30.2634C28.4369 28.0734 32.2286 20.7081 30.0433 13.7815C29.4093 11.7715 28.3041 9.9422 26.8198 8.44598C25.3355 6.94976 23.515 5.82998 21.5102 5.17998Z" fill="white"/>
</g>
<defs>
<clipPath id="clip0_1704_9455">
<rect width="35" height="35" fill="white"/>
</clipPath>
</defs>
</svg>
