<svg width="32" height="26" viewBox="0 0 32 26" fill="none" xmlns="http://www.w3.org/2000/svg">
<path d="M30.4823 8.06706V6.99813C30.4823 3.5144 27.632 0.664062 24.1482 0.664062H6.33407C2.85034 0.664062 0 3.51433 0 6.99813V19.666C0 23.1497 2.85027 26.0001 6.33407 26.0001H24.1482C27.632 26.0001 30.4823 23.1498 30.4823 19.666V18.5971C31.2345 18.2011 31.7492 17.4094 31.7492 16.499L31.749 10.1652C31.749 9.25474 31.2345 8.46307 30.4823 8.06706H30.4823ZM27.3153 15.7074H23.0399C21.7335 15.7074 20.6645 14.6384 20.6645 13.332C20.6645 12.0255 21.7334 10.9566 23.0399 10.9566H27.3153V15.7074Z" fill="#88E900"/>
</svg>
