<svg width="31" height="28" viewBox="0 0 31 28" fill="none" xmlns="http://www.w3.org/2000/svg">
<path d="M25.3383 0H5.42596C3.98799 0 2.60937 0.570686 1.59148 1.58658C0.574151 2.60293 0.00200817 3.98108 0 5.41906V21.5849C0.00196111 23.0223 0.574113 24.4011 1.59148 25.4168C2.6093 26.4332 3.98799 27.0039 5.42596 27.0039H25.3383C26.7747 27.002 28.1525 26.4303 29.1684 25.4145C30.1842 24.3986 30.7554 23.0215 30.7573 21.5849V5.41906C30.7554 3.98259 30.1842 2.60485 29.1684 1.58897C28.1525 0.573083 26.7749 0.00188266 25.3383 0ZM2.14385 10.1988H7.34515V10.1983C8.21686 10.2115 9.04883 10.5665 9.6617 11.1872C10.2745 11.8074 10.6187 12.6437 10.6207 13.516C10.6187 14.3946 10.2682 15.2369 9.64651 15.857C9.02435 16.4777 8.18154 16.8263 7.30297 16.8263H2.10167L2.14385 10.1988ZM28.6492 21.6061C28.6478 22.4832 28.2982 23.3244 27.6775 23.9447C27.0573 24.5654 26.2164 24.9145 25.3389 24.9164H5.42657C4.54799 24.9164 3.70518 24.5679 3.08353 23.9472C2.46137 23.3265 2.11082 22.4847 2.10935 21.6061V18.9419H7.31065H7.31016C8.74813 18.9404 10.1264 18.3678 11.1426 17.3504C12.1585 16.3331 12.7292 14.9539 12.7292 13.516C12.7277 12.0775 12.1551 10.6984 11.1382 9.68097C10.1209 8.66413 8.74173 8.0915 7.30325 8.08999H2.10196V5.42577C2.10392 4.5472 2.45447 3.7054 3.07613 3.08474C3.69829 2.46406 4.5411 2.11546 5.41967 2.11546H25.3383C26.2158 2.11742 27.0566 2.4665 27.6769 3.08719C28.2976 3.70739 28.6472 4.54877 28.6486 5.42584L28.6492 21.6061Z" fill="white"/>
<path d="M9.15811 13.5164C9.15811 14.5371 8.33052 15.3648 7.30934 15.3648C6.28858 15.3648 5.46094 14.5372 5.46094 13.5164C5.46094 12.4956 6.28853 11.668 7.30934 11.668C8.33058 11.668 9.15811 12.4956 9.15811 13.5164Z" fill="white"/>
</svg>
